<?xml version="1.0" encoding="UTF-8"?>
<svg id="Capa_1" xmlns="http://www.w3.org/2000/svg" version="1.1" xmlns:xlink="http://www.w3.org/1999/xlink" viewBox="0 0 496 85">
  <!-- Generator: Adobe Illustrator 30.2.1, SVG Export Plug-In . SVG Version: 2.1.1 Build 1)  -->
  <defs>
    <style>
      .st0 {
        stroke-width: .34px;
      }

      .st0, .st1, .st2, .st3 {
        fill: none;
      }

      .st0, .st1, .st3 {
        stroke: #83898e;
      }

      .st1 {
        stroke-width: 1.01px;
      }

      .st3 {
        stroke-width: .61px;
      }

      .st4 {
        clip-path: url(#clippath);
      }

      .st5 {
        fill: #83898e;
      }
    </style>
    <clipPath id="clippath">
      <rect class="st2" x="-172" y="-242.28" width="841.89" height="595.28"/>
    </clipPath>
  </defs>
  <g class="st4">
    <path class="st5" d="M90.65,29.63h-5.77c-.24,0-.45-.08-.63-.23-.17-.15-.25-.34-.25-.56s.08-.41.25-.56c.18-.16.38-.24.63-.24h13.27c.25,0,.45.08.62.24.17.15.26.34.26.56s-.08.41-.26.56c-.17.15-.37.23-.62.23h-5.77v16.74c0,.22-.08.42-.25.58-.17.15-.38.22-.63.22s-.44-.07-.61-.22c-.17-.16-.25-.35-.25-.58v-16.74Z"/>
    <path class="st5" d="M118.1,30.94l7.14,15.74c.14.33.41.49.8.49.12,0,.23-.02.34-.07.23-.08.38-.22.47-.43.1-.2.1-.41,0-.61l-7.94-17.52s-.04-.09-.07-.15c0,.01-.02-.01-.06-.05-.03-.04-.05-.06-.06-.06,0,0-.04-.02-.07-.06l-.06-.04c-.1-.06-.2-.1-.32-.12h-.07s-.08-.02-.08-.02c0,0-.05,0-.11.02h-.07c-.11.01-.21.06-.31.12.01,0,0,0-.06.04-.04.03-.06.04-.07.06,0,0-.03.03-.06.06l-.06.05c-.03.05-.05.1-.07.15l-7.94,17.52c-.1.21-.1.41,0,.61.09.21.24.35.46.43.11.04.16.07.16.07h.18c.38,0,.66-.16.8-.49"/>
    <path class="st5" d="M152.23,28.09c.22.07.39.21.49.41.1.2.11.4.03.61l-6.73,17.54s-.01,0-.03.06c0,.02-.01.03-.01.04-.02.04-.04.07-.07.1-.02.03-.02.04-.02.03-.03.04-.06.07-.1.11,0-.01,0,0-.03.02-.03.02-.05.04-.09.05-.02.01-.04.02-.06.03-.03.02-.07.04-.1.05h-.03s0,0-.01.01c-.02.01-.05.02-.09.03h-.05s-.09,0-.13,0c-.04,0-.08,0-.13,0h-.04s-.07-.02-.1-.03t0,0h-.01s-.01-.01-.01-.01c-.04-.02-.08-.04-.12-.05-.02,0-.03-.02-.04-.03-.03-.02-.06-.04-.09-.05-.03-.02-.04-.03-.03-.02-.04-.04-.07-.07-.1-.11v-.02s-.01,0-.01,0c-.03-.03-.06-.06-.08-.1,0,0,0-.02-.01-.04-.02-.05-.03-.07-.03-.06l-6.73-17.54c-.09-.21-.08-.41.03-.61.1-.2.27-.34.49-.41.23-.07.46-.06.67.04.21.09.36.24.44.45l5.91,15.4,5.93-15.4c.07-.21.22-.36.44-.45.21-.1.32-.14.32-.14,0,0,.12.03.35.1"/>
    <path class="st5" d="M165.76,47.18c-.24,0-.45-.08-.62-.24-.17-.15-.26-.34-.26-.56v-17.55c0-.22.09-.41.26-.56.18-.17.39-.25.62-.24l11.59.03c.24,0,.45.08.61.24.18.16.26.35.26.56,0,.22-.08.42-.26.58-.16.15-.37.22-.61.22l-10.71-.02v7.18h8.01c.24,0,.45.08.61.24.17.15.26.34.26.56s-.09.41-.26.56c-.16.16-.37.24-.61.24h-8.01v7.18h10.71c.24,0,.45.08.61.24.18.15.26.34.26.56s-.08.41-.26.56c-.16.16-.37.24-.61.24h-11.59Z"/>
    <path class="st5" d="M197.78,28.08c1.68,0,3.12.5,4.32,1.5,1.19,1.01,1.78,2.22,1.78,3.64,0,1.26-.48,2.38-1.45,3.34-.96.95-2.16,1.53-3.61,1.73l4.16,7.75c.11.2.12.4.04.6-.08.2-.22.35-.44.45-.12.06-.24.08-.38.08-.36,0-.62-.14-.77-.44l-4.51-8.36h-4.88v7.88c0,.22-.09.4-.26.56-.16.15-.37.23-.61.23s-.44-.07-.61-.23c-.17-.16-.25-.35-.25-.56v-17.39c0-.22.08-.41.25-.56.17-.15.37-.23.61-.23h6.62ZM202.16,33.22c0-.99-.43-1.83-1.29-2.52-.85-.7-1.89-1.05-3.09-1.05h-5.74v7.14h5.84c1.19-.02,2.19-.38,3.02-1.07.84-.7,1.26-1.53,1.26-2.5"/>
    <path class="st5" d="M231.51,46.9v-.02s-.03,0-.03,0l-13.36-15.73v15.24c0,.22-.09.41-.26.56-.17.16-.38.24-.62.24s-.45-.08-.62-.24c-.17-.15-.26-.34-.26-.56v-17.57c0-.38.2-.63.58-.76.4-.12.73-.04.98.26l13.37,15.73v-15.24c0-.22.08-.41.25-.56.17-.16.38-.24.61-.24.25,0,.46.08.63.24.16.15.25.34.25.56v17.62s0,.06-.02.09c0,.02,0,.04-.01.06,0,.04-.02.07-.03.08,0,.02-.02.04-.04.07,0,.03-.02.05-.04.07,0,.01-.02.04-.04.06-.01.02-.04.05-.05.07-.01,0-.03.03-.06.06-.05.03-.06.04-.04.03.02-.01.01,0-.03.03,0,0-.02.02-.04.03-.03.01-.06.03-.09.04-.02.01-.04.02-.06.03-.03.01-.06.02-.1.03-.03,0-.05.01-.06.01-.05,0-.11,0-.16,0-.06,0-.11,0-.17,0h-.06s-.08-.05-.11-.06c-.01,0-.03-.02-.06-.04-.04-.02-.07-.03-.1-.06-.01,0-.03-.02-.06-.04-.03-.03-.04-.04-.04-.04,0,0-.02-.01-.05-.04"/>
    <path class="st5" d="M262.96,46.07l-7.94-17.52s-.04-.09-.07-.15c0,.01-.03-.01-.06-.05-.03-.04-.05-.06-.06-.06,0,0-.03-.02-.07-.06l-.06-.04c-.1-.06-.2-.1-.32-.12h-.07s-.08-.02-.08-.02c-.02,0-.06,0-.11.02h-.07c-.11.01-.21.06-.31.12.01,0,0,0-.05.04-.04.03-.07.04-.07.06-.01,0-.04.03-.06.06l-.05.05c-.03.05-.06.1-.07.15l-7.94,17.52c-.1.21-.1.41,0,.61.09.21.24.35.46.43.11.04.16.07.16.07h.18c.39,0,.66-.16.8-.49l7.14-15.74,7.14,15.74c.15.33.42.49.8.49.12,0,.23-.02.34-.07.22-.08.39-.22.47-.43.1-.2.1-.41,0-.61"/>
    <path class="st5" d="M289.23,47.4c-.24,0-.46-.08-.63-.23-.18-.16-.26-.36-.26-.58v-17.75c0-.23.08-.42.26-.58.17-.17.39-.25.63-.25h4.92c2.92,0,5.41.94,7.48,2.83,2.06,1.9,3.1,4.17,3.1,6.84s-1.03,4.95-3.1,6.83c-2.07,1.9-4.57,2.84-7.48,2.84l-4.91.06h0ZM290.12,45.76l4.02-.06c2.44,0,4.52-.78,6.23-2.35,1.73-1.58,2.6-3.47,2.6-5.69s-.87-4.11-2.6-5.68c-1.72-1.58-3.79-2.35-6.22-2.35h-4.04v16.13Z"/>
    <path class="st5" d="M314.81,47.4c-.25,0-.45-.08-.62-.25-.17-.15-.26-.34-.26-.57v-17.77c0-.22.09-.41.26-.57.18-.18.39-.25.62-.25l11.73.03c.25,0,.46.09.63.24.17.17.26.36.26.57,0,.23-.09.42-.26.58-.17.15-.37.23-.63.23l-10.85-.03v7.27h8.12c.24,0,.45.09.61.24.17.15.27.34.27.57s-.1.41-.27.57c-.17.16-.38.25-.61.25h-8.12v7.26h10.85c.25,0,.46.08.63.25.17.15.26.34.26.57s-.09.42-.26.57c-.17.17-.37.25-.63.25h-11.73Z"/>
    <path class="st5" d="M354.42,28.07c.23,0,.43.08.61.24.17.15.25.34.25.57v16.9h9.6c.24,0,.45.09.61.24.18.16.27.35.27.57s-.09.43-.27.58c-.16.15-.38.23-.61.23h-10.46c-.26,0-.47-.08-.65-.23-.16-.16-.25-.36-.25-.58v-17.7c0-.23.09-.42.25-.57.18-.16.39-.24.65-.24"/>
    <path class="st5" d="M382.98,28.54s-.04-.1-.08-.15c0,.02,0-.02-.06-.05-.01-.04-.04-.06-.06-.08,0,0-.02-.02-.07-.05l-.06-.03c-.09-.05-.2-.1-.32-.12h-.07s-.07-.01-.07-.01c0,0-.06,0-.12.01h-.08c-.1.02-.2.07-.3.12.01,0-.01,0-.06.03-.03.04-.06.05-.08.05,0,.02-.02.03-.06.08l-.06.05c-.01.05-.05.1-.06.15l-8.05,17.73c-.1.21-.1.42,0,.63.09.21.25.34.48.43.1.03.16.07.16.07h.18c.39,0,.65-.17.8-.49l7.23-15.95,7.23,15.95c.15.32.42.49.82.49.11,0,.22-.03.34-.07.22-.09.38-.22.47-.43.1-.21.1-.42,0-.63l-8.03-17.73Z"/>
    <path class="st5" d="M424.72,38.51c-2.37-.03-4.14-.63-5.36-1.8-.96-.93-1.41-2.02-1.36-3.26.09-1.51.76-2.8,2.03-3.86,1.26-1.05,2.77-1.58,4.54-1.58,1.56,0,2.95.3,4.16.89,1.47.7,2.4,1.72,2.79,3.07.06.22.02.42-.1.61-.12.19-.31.31-.54.37-.24.05-.46.03-.67-.09-.21-.1-.34-.27-.39-.49-.28-.94-.97-1.65-2.08-2.13-.93-.42-1.99-.63-3.17-.63-1.29,0-2.4.38-3.32,1.15-.93.74-1.42,1.68-1.48,2.78-.04.77.26,1.46.89,2.07.85.83,2.21,1.26,4.09,1.29.25.01.46.09.63.24.16.16.24.35.24.58,0,.22-.09.41-.27.56-.17.15-.37.23-.62.23h0ZM420.82,46.53c-1.47-.72-2.41-1.74-2.78-3.09-.06-.21-.04-.42.08-.61.13-.18.32-.31.55-.37.23-.06.44-.03.67.08.2.12.34.28.4.48.26.95.96,1.66,2.07,2.16.92.4,1.98.6,3.17.6,1.3,0,2.4-.37,3.33-1.13.93-.75,1.41-1.67,1.48-2.76.04-.78-.27-1.49-.89-2.08-.85-.84-2.22-1.27-4.09-1.29-.25,0-.45-.09-.62-.25-.17-.16-.25-.36-.25-.57.01-.23.11-.41.28-.57.17-.16.37-.23.62-.23,2.37.03,4.15.64,5.35,1.81.96.92,1.42,2.01,1.35,3.23-.07,1.53-.74,2.82-2.01,3.87-1.26,1.06-2.77,1.59-4.54,1.59-1.55,0-2.95-.29-4.16-.87"/>
    <path class="st5" d="M450.13,28.54s-.04-.1-.06-.15c0,.02-.03-.02-.06-.05-.04-.04-.06-.06-.06-.08,0,0-.03-.02-.07-.05l-.06-.03c-.1-.05-.2-.1-.33-.12h-.07s-.08-.01-.08-.01c0,0-.06,0-.11.01h-.08c-.1.02-.2.07-.3.12,0,0-.02,0-.06.03-.04.04-.07.05-.07.05-.01.02-.04.04-.06.09l-.06.05c-.03.05-.06.1-.08.15l-8.03,17.73c-.11.21-.11.42,0,.63.08.21.24.34.46.43.11.03.16.07.16.07h.17c.4,0,.67-.17.82-.49l7.23-15.95,7.23,15.95c.14.32.42.49.8.49.12,0,.24-.03.34-.07.23-.09.39-.22.47-.43.11-.21.11-.42,0-.63l-8.04-17.73Z"/>
    <path class="st5" d="M469.03,28.07c.24,0,.44.08.62.24.17.15.27.34.27.57v16.9h9.58c.25,0,.45.09.62.24.18.16.27.35.27.57s-.09.43-.27.58c-.17.15-.37.23-.62.23h-10.47c-.24,0-.45-.08-.64-.23-.17-.16-.24-.36-.24-.58v-17.7c0-.23.08-.42.24-.57.18-.16.39-.24.64-.24"/>
    <path class="st3" d="M19.23,71.05c1.52-.01,3.88-.65,5.51-2.59,1.61,1.93,3.95,2.54,5.47,2.54,1.53,0,3.88-.64,5.53-2.59,1.61,1.92,3.95,2.54,5.47,2.54,1.53,0,3.88-.65,5.52-2.59,1.61,1.93,3.95,2.55,5.47,2.54,1.53,0,3.88-.65,5.52-2.59,1.61,1.92,3.94,2.54,5.47,2.54.6,0,1.13-.08,1.62-.19v-2.62c-.55.13-1.14.23-1.82.23-1.52,0-3.84-.61-5.43-2.54-1.63,1.94-3.97,2.58-5.48,2.59-1.52,0-3.84-.61-5.44-2.54-1.63,1.94-3.97,2.58-5.48,2.59-1.51.01-3.84-.61-5.43-2.53-1.63,1.94-3.97,2.58-5.49,2.59-1.51,0-3.83-.61-5.43-2.54-1.63,1.94-3.96,2.58-5.48,2.59-.75,0-1.33-.18-1.82-.43v2.61c.47.23,1.02.4,1.72.4Z"/>
    <path class="st0" d="M41.02,29.84c-1.34-1.04-3.23-2.6-4.68-4.36-1.57-1.91-2.37-3.76-2.35-5.51.03-3.92,3.24-7.08,7.15-7.05,3.92.02,7.08,3.23,7.05,7.15-.01,1.76-.78,3.5-2.34,5.34-1.39,1.64-3.21,3.12-4.83,4.43Z"/>
    <path class="st0" d="M41.03,28.57c-1.16-.9-2.81-2.26-4.07-3.79-1.37-1.66-2.05-3.27-2.04-4.78.03-3.4,2.81-6.15,6.21-6.13,3.4.02,6.15,2.81,6.13,6.21-.01,1.52-.68,3.04-2.03,4.64-1.21,1.42-2.79,2.71-4.2,3.85Z"/>
    <path class="st0" d="M41.04,27.42c-1-.78-2.42-1.95-3.5-3.27-1.18-1.43-1.77-2.82-1.76-4.12.02-2.93,2.42-5.3,5.36-5.28,2.93.02,5.3,2.42,5.28,5.36,0,1.31-.58,2.62-1.76,4-1.04,1.23-2.41,2.34-3.62,3.32Z"/>
    <path class="st0" d="M41.05,26.34c-.85-.66-2.06-1.65-2.98-2.77-1-1.22-1.5-2.4-1.49-3.5.02-2.49,2.06-4.51,4.55-4.49,2.49.02,4.5,2.06,4.49,4.55-.01,1.12-.5,2.23-1.49,3.39-.89,1.04-2.05,1.99-3.07,2.82Z"/>
    <path class="st0" d="M41.06,25.14c-.69-.53-1.65-1.33-2.4-2.23-.8-.98-1.21-1.93-1.2-2.82.01-2,1.65-3.62,3.66-3.61,2,.01,3.62,1.65,3.61,3.66,0,.9-.4,1.79-1.2,2.73-.71.84-1.64,1.6-2.47,2.27Z"/>
    <path class="st0" d="M41.07,23.97c-.52-.4-1.27-1.02-1.83-1.7-.61-.75-.92-1.47-.92-2.15,0-1.53,1.26-2.77,2.79-2.75,1.53,0,2.77,1.26,2.76,2.79,0,.68-.3,1.37-.91,2.08-.55.64-1.25,1.22-1.89,1.73Z"/>
    <path class="st0" d="M41.08,22.73c-.35-.27-.85-.68-1.23-1.14-.41-.5-.62-.99-.62-1.44,0-1.03.85-1.85,1.87-1.85,1.02,0,1.85.85,1.85,1.87,0,.46-.2.92-.61,1.4-.37.43-.84.81-1.26,1.16Z"/>
    <path class="st0" d="M41.17,40.39c1.33,1.04,3.23,2.6,4.68,4.36,1.57,1.91,2.37,3.77,2.35,5.51-.03,3.92-3.24,7.08-7.15,7.05-3.91-.03-7.08-3.23-7.05-7.15.01-1.75.78-3.5,2.34-5.34,1.39-1.64,3.21-3.12,4.83-4.43Z"/>
    <path class="st0" d="M41.16,41.66c1.16.91,2.81,2.26,4.06,3.79,1.37,1.66,2.06,3.27,2.04,4.78-.02,3.4-2.81,6.15-6.21,6.13-3.4-.02-6.15-2.81-6.13-6.22.01-1.52.68-3.04,2.04-4.63,1.21-1.43,2.79-2.71,4.2-3.85Z"/>
    <path class="st0" d="M41.15,42.81c1,.78,2.42,1.95,3.51,3.27,1.18,1.43,1.77,2.82,1.76,4.12-.02,2.93-2.42,5.31-5.36,5.28-2.93-.02-5.3-2.42-5.28-5.36.01-1.31.58-2.62,1.75-4,1.05-1.23,2.41-2.34,3.62-3.32Z"/>
    <path class="st0" d="M41.14,43.9c.85.66,2.06,1.65,2.98,2.78,1,1.21,1.5,2.4,1.49,3.5-.02,2.49-2.06,4.5-4.55,4.49-2.49-.02-4.5-2.06-4.49-4.55,0-1.12.5-2.23,1.49-3.39.89-1.04,2.04-1.98,3.07-2.82Z"/>
    <path class="st0" d="M41.13,45.09c.68.54,1.66,1.33,2.4,2.23.8.98,1.21,1.93,1.2,2.82-.01,2-1.66,3.62-3.66,3.61-2-.01-3.62-1.65-3.61-3.66,0-.9.4-1.79,1.2-2.73.71-.84,1.64-1.6,2.47-2.27Z"/>
    <path class="st0" d="M41.12,46.26c.52.41,1.26,1.02,1.83,1.7.61.75.92,1.47.92,2.15-.01,1.53-1.26,2.76-2.8,2.75-1.53,0-2.76-1.26-2.75-2.79,0-.68.31-1.37.92-2.08.54-.64,1.25-1.22,1.89-1.73Z"/>
    <path class="st0" d="M41.11,47.5c.35.27.85.68,1.23,1.14.41.5.62.99.62,1.44,0,1.02-.85,1.85-1.87,1.84-1.03,0-1.85-.85-1.85-1.87,0-.46.2-.92.61-1.4.37-.43.84-.82,1.26-1.16Z"/>
    <path class="st0" d="M46.41,34.81c1.04-1.33,2.6-3.23,4.36-4.68,1.91-1.57,3.76-2.37,5.51-2.35,3.92.03,7.08,3.24,7.05,7.15-.02,3.91-3.23,7.08-7.15,7.05-1.76-.01-3.5-.78-5.34-2.34-1.64-1.39-3.12-3.21-4.43-4.83Z"/>
    <path class="st0" d="M47.68,34.82c.9-1.16,2.26-2.81,3.79-4.06,1.66-1.37,3.27-2.05,4.78-2.04,3.4.02,6.15,2.81,6.13,6.21-.02,3.4-2.81,6.15-6.21,6.13-1.52-.01-3.04-.68-4.64-2.03-1.43-1.21-2.71-2.79-3.85-4.2Z"/>
    <path class="st0" d="M48.83,34.83c.78-1,1.95-2.42,3.26-3.51,1.43-1.18,2.82-1.77,4.12-1.76,2.93.02,5.3,2.42,5.28,5.36-.02,2.93-2.42,5.3-5.36,5.28-1.31,0-2.62-.58-4-1.75-1.23-1.04-2.34-2.41-3.32-3.62Z"/>
    <path class="st0" d="M49.92,34.84c.66-.85,1.65-2.06,2.77-2.98,1.22-1,2.4-1.5,3.5-1.49,2.49.02,4.5,2.06,4.49,4.55-.02,2.49-2.06,4.5-4.55,4.49-1.12,0-2.22-.49-3.39-1.49-1.04-.89-1.99-2.04-2.82-3.07Z"/>
    <path class="st0" d="M51.11,34.85c.53-.68,1.33-1.65,2.23-2.4.98-.8,1.93-1.21,2.81-1.2,2,.01,3.62,1.66,3.61,3.66-.01,2-1.66,3.62-3.66,3.61-.9,0-1.79-.4-2.73-1.2-.84-.71-1.6-1.64-2.27-2.47Z"/>
    <path class="st0" d="M52.28,34.86c.41-.52,1.02-1.26,1.7-1.83.75-.61,1.47-.92,2.15-.92,1.53.01,2.77,1.26,2.75,2.79,0,1.53-1.26,2.76-2.8,2.75-.68,0-1.36-.31-2.08-.91-.64-.55-1.22-1.25-1.73-1.89Z"/>
    <path class="st0" d="M53.52,34.87c.27-.35.68-.85,1.14-1.22.5-.41.99-.62,1.44-.62,1.03,0,1.85.85,1.85,1.87,0,1.03-.85,1.86-1.87,1.85-.46,0-.92-.21-1.4-.61-.43-.37-.82-.84-1.16-1.27Z"/>
    <path class="st0" d="M35.9,35.21c-1.04,1.33-2.6,3.23-4.36,4.68-1.91,1.57-3.76,2.37-5.51,2.35-3.91-.03-7.08-3.24-7.05-7.15.02-3.92,3.23-7.08,7.15-7.05,1.76.01,3.5.78,5.34,2.34,1.64,1.39,3.12,3.21,4.43,4.83Z"/>
    <path class="st0" d="M34.64,35.2c-.9,1.16-2.26,2.81-3.79,4.07-1.66,1.37-3.27,2.06-4.78,2.04-3.4-.02-6.15-2.81-6.13-6.21.02-3.4,2.81-6.15,6.21-6.13,1.52,0,3.04.68,4.63,2.03,1.43,1.21,2.71,2.79,3.85,4.2Z"/>
    <path class="st0" d="M33.49,35.19c-.78,1-1.95,2.42-3.27,3.51-1.43,1.18-2.82,1.77-4.12,1.76-2.93-.02-5.31-2.42-5.28-5.36.02-2.93,2.42-5.3,5.36-5.28,1.32.01,2.62.59,4,1.75,1.23,1.04,2.34,2.4,3.32,3.62Z"/>
    <path class="st0" d="M32.4,35.19c-.66.85-1.65,2.06-2.77,2.98-1.22,1-2.4,1.5-3.5,1.5-2.49-.02-4.5-2.06-4.49-4.55.01-2.49,2.06-4.5,4.55-4.49,1.12,0,2.23.5,3.39,1.49,1.04.89,1.99,2.04,2.82,3.07Z"/>
    <path class="st0" d="M31.21,35.18c-.53.69-1.33,1.65-2.23,2.4-.98.8-1.93,1.21-2.82,1.2-2-.02-3.62-1.66-3.61-3.66.01-2,1.65-3.62,3.66-3.61.9,0,1.79.4,2.73,1.2.84.71,1.6,1.65,2.27,2.47Z"/>
    <path class="st0" d="M30.04,35.17c-.41.52-1.02,1.26-1.7,1.83-.75.62-1.47.92-2.15.92-1.53-.01-2.77-1.26-2.76-2.8,0-1.53,1.26-2.76,2.8-2.75.68,0,1.36.3,2.08.92.64.55,1.22,1.25,1.73,1.88Z"/>
    <path class="st0" d="M28.8,35.16c-.27.35-.68.85-1.14,1.22-.5.41-.99.62-1.44.62-1.03,0-1.86-.85-1.85-1.88,0-1.02.84-1.85,1.87-1.85.46,0,.91.21,1.4.62.43.37.82.84,1.16,1.26Z"/>
    <path class="st1" d="M38,35.23s-.04-.04-.06-.07l3.14,3.14,3.16-3.16-3.16-3.17-3.16,3.16c-1.57-1.93-3.33-4.09-5.29-5.75-2.23-1.89-4.34-2.82-6.47-2.84-4.74-.03-8.63,3.8-8.66,8.54-.03,4.75,3.8,8.63,8.54,8.67,2.11.01,4.35-.95,6.67-2.85,2.13-1.75,4.02-4.05,5.28-5.67Z"/>
    <path class="st1" d="M41.18,38.3c-1.96,1.59-4.17,3.39-5.86,5.37-1.89,2.23-2.82,4.34-2.84,6.47-.03,4.74,3.8,8.63,8.54,8.66,4.74.03,8.63-3.8,8.67-8.54.02-2.11-.94-4.35-2.85-6.67-1.75-2.13-4.05-4.02-5.67-5.28Z"/>
    <path class="st1" d="M56.27,26.28c-2.11-.02-4.36.94-6.67,2.85-2.13,1.75-4.02,4.05-5.28,5.67,1.59,1.96,3.38,4.17,5.37,5.85,2.22,1.9,4.34,2.82,6.47,2.84,4.74.03,8.63-3.8,8.66-8.54.04-4.74-3.8-8.63-8.54-8.67Z"/>
    <path class="st1" d="M41.01,31.94c1.96-1.59,4.16-3.38,5.85-5.37,1.89-2.23,2.82-4.34,2.84-6.47.03-4.74-3.8-8.63-8.54-8.66-4.74-.03-8.63,3.8-8.66,8.54-.02,2.11.94,4.35,2.85,6.67,1.75,2.13,4.05,4.02,5.67,5.28Z"/>
  </g>
</svg>