<?xml version="1.0" encoding="UTF-8"?>
<svg id="Capa_1" data-name="Capa 1" xmlns="http://www.w3.org/2000/svg" viewBox="0 0 595.28 841.89">
  <defs>
    <style>
      .cls-1 {
        stroke-dasharray: 2.01 2.01;
      }

      .cls-1, .cls-2, .cls-3, .cls-4, .cls-5, .cls-6, .cls-7 {
        fill: none;
      }

      .cls-1, .cls-7 {
        stroke: #e6007e;
        stroke-width: .25px;
      }

      .cls-2 {
        stroke-width: .57px;
      }

      .cls-2, .cls-3, .cls-5 {
        stroke: #fff;
      }

      .cls-3 {
        stroke-width: .32px;
      }

      .cls-8 {
        fill: #fff;
      }

      .cls-5 {
        stroke-width: .94px;
      }

      .cls-6 {
        stroke: #83898e;
        stroke-width: .61px;
      }

      .cls-9 {
        fill: #83898e;
      }
    </style>
  </defs>
  <rect class="cls-9" x="74.93" y="517.58" width="161.66" height="137.38"/>
  <rect class="cls-6" x="74.93" y="517.58" width="161.66" height="137.38"/>
  <path class="cls-8" d="M95.39,610.48h-4.2c-.18,0-.33-.06-.46-.17-.12-.11-.18-.25-.18-.41s.06-.3.18-.41c.13-.12.28-.18.46-.18h9.67c.18,0,.33.06.45.18.13.11.19.24.19.41s-.06.3-.19.41c-.12.11-.27.17-.45.17h-4.2v12.2c0,.16-.06.3-.18.42-.13.11-.28.16-.46.16s-.32-.05-.45-.16c-.12-.12-.18-.26-.18-.42v-12.2Z"/>
  <path class="cls-8" d="M115.39,611.43l5.2,11.47c.11.24.3.36.58.36l.24-.05c.16-.06.28-.16.34-.31.07-.15.07-.29,0-.45l-5.79-12.76-.05-.11-.04-.04-.04-.04-.05-.04-.04-.03-.23-.09h-.11s-.08,0-.08,0h-.05l-.23.09-.04.03-.05.04-.04.04-.04.04-.05.11-5.79,12.76c-.07.15-.07.3,0,.45.06.15.18.25.34.31l.12.05h.13c.28,0,.48-.12.59-.36"/>
  <path class="cls-8" d="M140.25,609.35c.16.05.28.15.36.3.07.14.08.29.02.44l-4.9,12.78-.02.04v.03s-.06.07-.06.07v.02s-.09.08-.09.08l-.02.02-.06.04-.04.02-.08.04h-.02s-.01,0-.01,0l-.06.02h-.14s-.1,0-.1,0h-.03l-.08-.02h-.01s-.01,0-.01,0l-.08-.04-.03-.02-.06-.04-.02-.02-.07-.08h-.01v-.02l-.05-.07v-.03s-.03-.04-.03-.04l-4.9-12.78c-.06-.15-.06-.29.02-.44.08-.15.2-.25.36-.3.17-.05.33-.04.49.03.16.06.26.17.32.33l4.31,11.22,4.32-11.22c.06-.15.16-.26.32-.33.15-.07.24-.11.24-.11,0,0,.08.03.25.08"/>
  <path class="cls-8" d="M150.1,623.26c-.18,0-.33-.06-.45-.17-.12-.11-.19-.25-.19-.41v-12.79c0-.16.07-.3.19-.41.13-.12.28-.18.45-.18l8.44.02c.18,0,.33.06.44.18.13.11.19.25.19.41,0,.16-.06.3-.19.42-.12.11-.27.16-.44.16l-7.81-.02v5.23h5.84c.18,0,.33.06.45.18.13.11.19.24.19.41s-.07.3-.19.41c-.12.12-.27.17-.45.17h-5.84v5.23h7.81c.18,0,.33.06.44.18.13.11.19.25.19.41s-.06.3-.19.41c-.12.12-.27.17-.44.17h-8.44Z"/>
  <path class="cls-8" d="M173.43,609.34c1.23,0,2.27.36,3.15,1.1.86.73,1.3,1.62,1.3,2.65,0,.92-.35,1.73-1.06,2.43-.69.69-1.57,1.11-2.63,1.26l3.03,5.64c.08.14.09.29.03.44-.06.15-.16.26-.32.33-.09.04-.18.06-.28.06-.26,0-.45-.1-.56-.32l-3.28-6.09h-3.55v5.74c0,.16-.06.3-.19.41-.12.11-.27.16-.45.16s-.32-.06-.45-.16c-.12-.12-.18-.26-.18-.41v-12.67c0-.16.06-.3.18-.41.13-.11.27-.16.45-.16h4.82ZM176.62,613.09c0-.72-.31-1.33-.94-1.84-.62-.51-1.38-.77-2.25-.77h-4.18v5.2h4.26c.86-.02,1.6-.27,2.2-.78.61-.51.92-1.11.92-1.82"/>
  <path class="cls-8" d="M198,623.06h0s-.01-.02-.01-.02l-9.73-11.46v11.1c0,.16-.06.3-.19.41-.12.12-.27.17-.45.17s-.33-.06-.45-.17c-.13-.11-.19-.25-.19-.41v-12.8c0-.28.14-.46.42-.55.29-.09.53-.03.71.19l9.74,11.46v-11.1c0-.16.06-.3.18-.41.13-.12.28-.18.45-.18.18,0,.33.06.46.18.12.11.18.25.18.41v12.9s-.02.05-.02.05l-.02.06-.02.05-.03.05-.03.05-.04.05-.04.04-.03.02-.02.02-.03.02-.06.03-.04.02-.08.02h-.04s-.12.02-.12.02h-.13s-.04-.02-.04-.02l-.09-.03-.04-.03-.07-.04-.04-.03-.03-.03-.03-.03Z"/>
  <path class="cls-8" d="M220.91,622.45l-5.79-12.76-.05-.1-.04-.04-.04-.04-.05-.04-.04-.03-.23-.09h-.11s-.08,0-.08,0h-.05l-.22.09-.04.03-.05.04-.04.04-.04.04-.05.1-5.79,12.76c-.07.15-.07.3,0,.45.07.15.18.25.34.31l.12.05h.13c.28,0,.48-.12.59-.36l5.2-11.47,5.2,11.47c.11.24.3.36.59.36l.24-.05c.16-.06.28-.16.34-.31.07-.15.07-.29,0-.45"/>
  <path class="cls-8" d="M124.08,635.74l-.19-.07-.08-.18v-5.32l.08-.17.19-.07h1.47c.88,0,1.62.28,2.24.85.62.57.93,1.25.93,2.05s-.31,1.48-.93,2.05c-.62.57-1.37.85-2.24.85l-1.47.02h0ZM124.35,635.25l1.21-.02c.73,0,1.35-.24,1.87-.71.52-.47.78-1.04.78-1.71s-.26-1.23-.78-1.71c-.52-.47-1.14-.7-1.86-.7h-1.21v4.84Z"/>
  <polygon class="cls-8" points="133.25 635.74 133.07 635.67 132.99 635.5 132.99 630.17 133.07 630 133.25 629.93 136.77 629.94 136.96 630.01 137.04 630.18 136.96 630.35 136.77 630.42 133.52 630.41 133.52 632.59 135.95 632.59 136.14 632.67 136.22 632.84 136.14 633.01 135.95 633.08 133.52 633.08 133.52 635.26 136.77 635.26 136.96 635.33 137.04 635.5 136.96 635.67 136.77 635.74 133.25 635.74"/>
  <polygon class="cls-8" points="146.33 629.95 146.51 630.02 146.59 630.19 146.59 635.26 149.46 635.26 149.65 635.33 149.73 635.5 149.65 635.68 149.46 635.74 146.33 635.74 146.13 635.68 146.06 635.5 146.06 630.19 146.13 630.02 146.33 629.95"/>
  <path class="cls-8" d="M155.79,630.09l-.02-.04-.02-.02-.02-.02-.02-.02h-.02s-.1-.05-.1-.05h-.05s-.03,0-.03,0h-.02l-.09.04h-.02s-.02.03-.02.03l-.02.02-.02.02-.02.04-2.41,5.32v.19l.14.13.05.02h.06c.11,0,.19-.05.24-.15l2.17-4.78,2.17,4.78c.04.1.13.15.24.15l.1-.02.14-.13v-.19l-2.41-5.32Z"/>
  <path class="cls-8" d="M168.91,633.08c-.71,0-1.24-.19-1.61-.54-.29-.28-.42-.61-.41-.98.03-.46.23-.84.61-1.16.38-.32.83-.47,1.36-.47.47,0,.88.09,1.25.27.44.21.72.52.83.92l-.03.18-.16.11-.2-.02-.12-.15c-.08-.28-.29-.49-.62-.64-.28-.13-.6-.19-.95-.19-.39,0-.72.11-1,.34-.28.22-.43.5-.44.83-.01.23.08.44.26.62.26.25.67.38,1.23.39l.19.07.07.17-.08.17-.18.07h0ZM167.74,635.48c-.44-.22-.72-.52-.83-.93l.02-.18.16-.11.2.03.12.14c.08.28.29.5.62.65.28.12.6.18.95.18.39,0,.72-.11,1-.34.28-.23.42-.5.44-.83.01-.24-.08-.44-.27-.62-.26-.25-.67-.38-1.23-.39l-.18-.07-.08-.17.08-.17.19-.07c.71,0,1.24.19,1.6.54.29.28.42.6.4.97-.02.46-.22.85-.6,1.16-.38.32-.83.47-1.36.47-.47,0-.88-.09-1.25-.26"/>
  <path class="cls-8" d="M177.73,630.09l-.02-.04-.02-.02-.02-.02-.02-.02h-.02s-.1-.05-.1-.05h-.05s-.03,0-.03,0h-.02l-.09.04h-.02s-.02.02-.02.02l-.02.02-.02.02-.02.04-2.41,5.32v.19l.14.13.05.02h.05c.12,0,.2-.05.24-.15l2.17-4.78,2.17,4.78c.04.1.13.15.24.15l.1-.02.14-.13v-.19l-2.41-5.32Z"/>
  <polygon class="cls-8" points="184.3 629.95 184.48 630.02 184.56 630.19 184.56 635.26 187.43 635.26 187.62 635.33 187.7 635.5 187.62 635.68 187.43 635.74 184.3 635.74 184.1 635.68 184.03 635.5 184.03 630.19 184.1 630.02 184.3 629.95"/>
  <path class="cls-2" d="M135.33,592.9c1.42-.01,3.61-.61,5.14-2.42,1.5,1.8,3.68,2.37,5.1,2.37,1.42,0,3.61-.6,5.15-2.41,1.5,1.79,3.67,2.37,5.1,2.36,1.42,0,3.61-.6,5.14-2.41,1.5,1.8,3.67,2.38,5.1,2.37,1.42,0,3.61-.6,5.14-2.41,1.5,1.79,3.67,2.37,5.1,2.36.56,0,1.05-.08,1.51-.17v-2.44c-.51.12-1.06.21-1.7.21-1.41,0-3.58-.57-5.06-2.36-1.52,1.8-3.69,2.4-5.1,2.41-1.41,0-3.58-.57-5.07-2.36-1.52,1.8-3.7,2.4-5.11,2.41-1.41.01-3.57-.57-5.06-2.36-1.52,1.81-3.7,2.4-5.11,2.41-1.41,0-3.57-.57-5.06-2.37-1.52,1.81-3.7,2.41-5.11,2.42-.7,0-1.24-.17-1.69-.4v2.43c.44.22.95.37,1.61.37Z"/>
  <path class="cls-3" d="M155.63,554.51c-1.24-.97-3.01-2.42-4.36-4.06-1.47-1.78-2.2-3.51-2.19-5.13.03-3.65,3.01-6.6,6.66-6.57,3.65.03,6.59,3.01,6.57,6.66-.01,1.64-.73,3.26-2.18,4.97-1.3,1.52-2.99,2.91-4.5,4.13Z"/>
  <path class="cls-3" d="M155.64,553.34c-1.08-.84-2.62-2.1-3.79-3.53-1.27-1.55-1.91-3.05-1.9-4.46.02-3.17,2.62-5.73,5.79-5.71,3.17.02,5.73,2.61,5.71,5.78-.01,1.42-.63,2.83-1.9,4.32-1.13,1.33-2.6,2.52-3.91,3.58Z"/>
  <path class="cls-3" d="M155.65,552.26c-.93-.73-2.26-1.81-3.27-3.04-1.1-1.34-1.65-2.63-1.64-3.84.02-2.73,2.26-4.94,4.99-4.92,2.73.02,4.94,2.26,4.92,4.99,0,1.22-.54,2.44-1.63,3.72-.97,1.15-2.24,2.18-3.37,3.09Z"/>
  <path class="cls-3" d="M155.66,551.25c-.79-.61-1.92-1.54-2.77-2.58-.93-1.14-1.4-2.23-1.39-3.26.02-2.32,1.92-4.2,4.24-4.18,2.32.01,4.2,1.92,4.18,4.24,0,1.04-.46,2.07-1.39,3.16-.83.97-1.91,1.85-2.86,2.62Z"/>
  <path class="cls-3" d="M155.67,550.14c-.64-.5-1.54-1.24-2.23-2.08-.75-.91-1.13-1.8-1.12-2.62.01-1.87,1.54-3.38,3.41-3.36,1.87.01,3.38,1.54,3.36,3.41,0,.84-.37,1.67-1.12,2.54-.67.78-1.53,1.49-2.3,2.11Z"/>
  <path class="cls-3" d="M155.68,549.05c-.49-.38-1.18-.95-1.7-1.59-.57-.7-.86-1.37-.86-2,.01-1.42,1.18-2.58,2.6-2.57,1.42,0,2.58,1.18,2.57,2.6,0,.64-.28,1.27-.85,1.94-.51.6-1.17,1.13-1.76,1.61Z"/>
  <path class="cls-3" d="M155.69,547.9c-.33-.25-.79-.63-1.14-1.06-.38-.47-.58-.92-.57-1.34,0-.95.79-1.73,1.74-1.72.96,0,1.73.79,1.72,1.74,0,.43-.19.85-.57,1.3-.34.4-.78.76-1.18,1.08Z"/>
  <path class="cls-3" d="M155.77,564.35c1.24.97,3.01,2.42,4.36,4.06,1.47,1.78,2.2,3.51,2.19,5.13-.03,3.65-3.01,6.6-6.66,6.57-3.65-.03-6.59-3.01-6.57-6.66.01-1.64.73-3.26,2.18-4.97,1.3-1.52,2.99-2.91,4.5-4.13Z"/>
  <path class="cls-3" d="M155.76,565.53c1.08.84,2.62,2.11,3.79,3.53,1.27,1.55,1.91,3.05,1.9,4.45-.02,3.17-2.62,5.73-5.79,5.71-3.17-.02-5.73-2.61-5.71-5.78.01-1.42.63-2.83,1.9-4.32,1.13-1.33,2.6-2.53,3.91-3.59Z"/>
  <path class="cls-3" d="M155.75,566.6c.93.73,2.26,1.81,3.27,3.04,1.1,1.34,1.65,2.63,1.64,3.84-.02,2.73-2.26,4.94-4.99,4.92-2.73-.02-4.94-2.26-4.92-4.99,0-1.22.54-2.44,1.63-3.72.97-1.15,2.24-2.18,3.37-3.09Z"/>
  <path class="cls-3" d="M155.74,567.61c.79.62,1.92,1.54,2.77,2.58.93,1.13,1.4,2.23,1.39,3.26-.02,2.32-1.92,4.2-4.24,4.18-2.32-.01-4.2-1.92-4.18-4.24,0-1.04.46-2.07,1.39-3.16.83-.97,1.91-1.85,2.86-2.62Z"/>
  <path class="cls-3" d="M155.73,568.73c.64.5,1.54,1.24,2.23,2.08.75.91,1.13,1.79,1.12,2.62-.01,1.87-1.54,3.38-3.41,3.36-1.87-.01-3.38-1.54-3.36-3.41,0-.84.37-1.67,1.12-2.54.66-.78,1.53-1.49,2.3-2.11Z"/>
  <path class="cls-3" d="M155.73,569.81c.49.38,1.18.95,1.7,1.59.57.7.86,1.37.86,2-.01,1.42-1.18,2.58-2.6,2.57-1.42,0-2.58-1.18-2.57-2.6,0-.64.28-1.27.85-1.94.51-.6,1.17-1.13,1.76-1.61Z"/>
  <path class="cls-3" d="M155.72,570.97c.33.26.79.64,1.14,1.06.38.47.58.92.57,1.34,0,.96-.79,1.73-1.74,1.72-.96,0-1.73-.79-1.72-1.74,0-.43.19-.85.57-1.3.34-.4.78-.76,1.18-1.08Z"/>
  <path class="cls-3" d="M160.65,559.15c.97-1.24,2.42-3.01,4.06-4.36,1.78-1.46,3.51-2.21,5.13-2.19,3.65.03,6.6,3.01,6.57,6.66-.02,3.65-3.01,6.59-6.66,6.57-1.64-.01-3.26-.72-4.97-2.18-1.52-1.3-2.9-2.99-4.13-4.5Z"/>
  <path class="cls-3" d="M161.83,559.16c.84-1.08,2.1-2.62,3.53-3.79,1.55-1.27,3.05-1.91,4.45-1.9,3.17.02,5.73,2.62,5.71,5.79-.02,3.17-2.61,5.73-5.78,5.71-1.42-.01-2.83-.63-4.32-1.9-1.33-1.13-2.52-2.6-3.58-3.91Z"/>
  <path class="cls-3" d="M162.9,559.16c.73-.93,1.81-2.26,3.04-3.26,1.34-1.1,2.63-1.65,3.84-1.64,2.73.02,4.94,2.26,4.92,4.99-.02,2.73-2.26,4.94-4.99,4.92-1.22,0-2.44-.54-3.72-1.64-1.14-.97-2.18-2.24-3.09-3.37Z"/>
  <path class="cls-3" d="M163.92,559.17c.62-.79,1.54-1.92,2.58-2.77,1.13-.93,2.23-1.4,3.26-1.39,2.32.02,4.2,1.92,4.18,4.24-.02,2.32-1.92,4.2-4.24,4.18-1.04-.01-2.07-.46-3.16-1.39-.97-.83-1.85-1.9-2.62-2.86Z"/>
  <path class="cls-3" d="M165.03,559.18c.5-.64,1.24-1.54,2.08-2.23.91-.75,1.8-1.12,2.62-1.12,1.86.01,3.38,1.54,3.36,3.41-.01,1.87-1.54,3.38-3.41,3.36-.84,0-1.67-.37-2.54-1.11-.78-.67-1.49-1.53-2.11-2.3Z"/>
  <path class="cls-3" d="M166.12,559.19c.38-.49.95-1.18,1.59-1.7.7-.57,1.37-.86,2-.86,1.42.01,2.58,1.18,2.57,2.6-.01,1.42-1.18,2.57-2.6,2.57-.64,0-1.27-.28-1.94-.85-.6-.51-1.14-1.17-1.61-1.76Z"/>
  <path class="cls-3" d="M167.27,559.2c.25-.33.63-.79,1.06-1.14.47-.38.92-.58,1.34-.57.96,0,1.73.79,1.72,1.74,0,.96-.79,1.73-1.74,1.72-.43,0-.85-.19-1.3-.57-.4-.34-.76-.78-1.08-1.18Z"/>
  <path class="cls-3" d="M150.87,559.52c-.97,1.24-2.42,3.01-4.06,4.36-1.78,1.47-3.51,2.2-5.13,2.19-3.65-.03-6.6-3.01-6.57-6.66.02-3.65,3.01-6.6,6.66-6.57,1.64.01,3.26.72,4.97,2.18,1.52,1.3,2.9,2.99,4.13,4.5Z"/>
  <path class="cls-3" d="M149.69,559.51c-.84,1.08-2.1,2.62-3.53,3.79-1.55,1.27-3.05,1.91-4.46,1.9-3.17-.02-5.73-2.62-5.71-5.79.02-3.17,2.62-5.73,5.79-5.71,1.42.01,2.83.63,4.32,1.9,1.33,1.13,2.52,2.6,3.59,3.91Z"/>
  <path class="cls-3" d="M148.62,559.5c-.73.93-1.81,2.26-3.04,3.27-1.34,1.1-2.63,1.65-3.84,1.64-2.73-.02-4.94-2.26-4.92-4.99.02-2.73,2.26-4.94,4.99-4.92,1.22.01,2.44.54,3.72,1.64,1.14.97,2.18,2.24,3.09,3.37Z"/>
  <path class="cls-3" d="M147.6,559.49c-.62.79-1.54,1.92-2.58,2.77-1.13.93-2.23,1.4-3.26,1.39-2.32-.02-4.2-1.92-4.18-4.24.02-2.32,1.92-4.2,4.24-4.18,1.04,0,2.07.46,3.16,1.39.97.83,1.85,1.91,2.62,2.86Z"/>
  <path class="cls-3" d="M146.49,559.49c-.5.64-1.24,1.54-2.08,2.23-.91.75-1.79,1.13-2.62,1.12-1.86-.01-3.37-1.54-3.36-3.41.01-1.87,1.54-3.38,3.41-3.36.84,0,1.67.37,2.54,1.12.78.66,1.49,1.53,2.11,2.3Z"/>
  <path class="cls-3" d="M145.4,559.48c-.38.49-.95,1.18-1.59,1.7-.7.57-1.37.86-2,.86-1.42-.01-2.58-1.18-2.57-2.6s1.18-2.58,2.6-2.57c.64,0,1.27.28,1.94.85.6.51,1.14,1.17,1.61,1.76Z"/>
  <path class="cls-3" d="M144.25,559.47c-.25.33-.63.79-1.06,1.14-.47.38-.92.58-1.34.57-.96,0-1.73-.79-1.72-1.74,0-.96.79-1.73,1.74-1.72.43,0,.85.19,1.3.57.4.34.76.79,1.08,1.18Z"/>
  <path class="cls-5" d="M152.82,559.54l-.06-.07,2.93,2.93,2.95-2.95-2.95-2.95-2.95,2.95c-1.46-1.8-3.11-3.81-4.92-5.36-2.07-1.76-4.04-2.63-6.02-2.64-4.42-.03-8.04,3.54-8.07,7.96-.03,4.42,3.54,8.04,7.96,8.07,1.97.02,4.05-.88,6.22-2.65,1.98-1.63,3.74-3.77,4.92-5.28Z"/>
  <path class="cls-5" d="M155.78,562.39c-1.83,1.48-3.88,3.15-5.46,5-1.76,2.07-2.63,4.04-2.64,6.02-.03,4.42,3.54,8.04,7.96,8.07,4.42.03,8.04-3.54,8.07-7.96.02-1.96-.88-4.05-2.65-6.21-1.63-1.98-3.77-3.75-5.28-4.92Z"/>
  <path class="cls-5" d="M169.84,551.2c-1.97-.02-4.06.88-6.22,2.65-1.99,1.63-3.74,3.77-4.92,5.28,1.48,1.83,3.15,3.88,5,5.45,2.07,1.77,4.04,2.63,6.03,2.64,4.42.03,8.04-3.54,8.07-7.96.03-4.42-3.54-8.04-7.96-8.07Z"/>
  <path class="cls-5" d="M155.62,556.47c1.83-1.48,3.88-3.15,5.45-5,1.77-2.07,2.63-4.04,2.64-6.02.03-4.42-3.54-8.04-7.96-8.07-4.42-.03-8.04,3.54-8.07,7.96-.01,1.96.88,4.05,2.66,6.21,1.63,1.98,3.77,3.75,5.28,4.92Z"/>
  <line class="cls-7" x1="89.98" y1="499.25" x2="89.98" y2="500.25"/>
  <line class="cls-1" x1="89.98" y1="502.27" x2="89.98" y2="674.29"/>
  <line class="cls-7" x1="89.98" y1="675.3" x2="89.98" y2="676.3"/>
  <line class="cls-7" x1="63.81" y1="536" x2="64.81" y2="536"/>
  <line class="cls-1" x1="66.82" y1="536" x2="238.85" y2="536"/>
  <line class="cls-7" x1="239.85" y1="536" x2="240.85" y2="536"/>
  <line class="cls-7" x1="63.64" y1="637.1" x2="64.64" y2="637.1"/>
  <line class="cls-1" x1="66.65" y1="637.1" x2="238.68" y2="637.1"/>
  <line class="cls-7" x1="239.69" y1="637.1" x2="240.69" y2="637.1"/>
  <line class="cls-7" x1="221.55" y1="498.25" x2="221.55" y2="499.25"/>
  <line class="cls-1" x1="221.55" y1="501.27" x2="221.55" y2="673.29"/>
  <line class="cls-7" x1="221.55" y1="674.3" x2="221.55" y2="675.3"/>
  <rect class="cls-4" width="595.28" height="841.89"/>
</svg>