<?xml version="1.0" encoding="UTF-8"?>
<svg id="Capa_1" xmlns="http://www.w3.org/2000/svg" version="1.1" viewBox="0 0 268 210">
  <!-- Generator: Adobe Illustrator 30.2.1, SVG Export Plug-In . SVG Version: 2.1.1 Build 1)  -->
  <defs>
    <style>
      .st0 {
        stroke-width: 1.11px;
      }

      .st0, .st1, .st2 {
        fill: none;
        stroke: #83898e;
      }

      .st1 {
        stroke-width: 1.84px;
      }

      .st2 {
        stroke-width: .62px;
      }

      .st3 {
        fill: #83898e;
      }
    </style>
  </defs>
  <path class="st3" d="M16.33,154.43h-8.19c-.35,0-.65-.11-.89-.32-.24-.22-.35-.48-.35-.8s.11-.58.35-.79c.25-.23.54-.34.89-.34h18.85c.35,0,.64.11.88.34.25.21.37.48.37.79s-.12.58-.37.8c-.24.21-.53.32-.88.32h-8.19v23.79c0,.32-.12.59-.36.82-.25.21-.54.32-.89.32s-.62-.1-.87-.32c-.24-.23-.36-.5-.36-.82v-23.79Z"/>
  <path class="st3" d="M55.33,156.29l10.14,22.36c.21.47.59.7,1.14.7.17,0,.33-.03.48-.09.32-.11.54-.31.67-.61.14-.29.14-.58,0-.87l-11.28-24.89-.1-.2-.08-.08-.08-.09-.1-.08-.08-.06c-.14-.09-.29-.15-.46-.17h-.1l-.11-.02-.16.02h-.1c-.16.02-.3.08-.44.17l-.08.06-.1.08-.09.09-.09.08-.1.2-11.28,24.89c-.14.29-.14.58,0,.87.12.29.34.49.66.61.15.07.23.09.23.09h.25c.55,0,.93-.23,1.14-.7"/>
  <path class="st3" d="M103.82,152.23c.31.1.55.3.7.59.14.28.15.56.04.85l-9.56,24.93-.04.08-.02.05-.1.13-.02.04-.14.15-.04.03-.12.08-.08.04-.15.08h-.02l-.02.02h-.02l-.12.04h-.27s-.19,0-.19,0h-.06l-.15-.04-.02-.02h-.02l-.17-.08-.06-.04-.13-.08-.04-.03-.14-.15-.02-.02v-.02l-.11-.13-.02-.05-.04-.08-9.56-24.93c-.13-.29-.12-.57.04-.85.15-.29.39-.48.7-.59.33-.1.65-.08.95.06.3.12.51.34.62.64l8.4,21.87,8.42-21.87c.11-.3.32-.52.62-.64.3-.14.46-.21.46-.21,0,0,.16.05.49.15"/>
  <path class="st3" d="M123.04,179.35c-.35,0-.64-.11-.87-.34-.24-.21-.37-.48-.37-.79v-24.94c0-.32.13-.58.37-.8.25-.24.54-.36.87-.34l16.47.04c.34,0,.64.11.87.34.26.22.37.49.37.79,0,.32-.12.59-.37.82-.23.21-.52.32-.87.32l-15.22-.04v10.2h11.38c.35,0,.64.11.87.34.25.21.37.48.37.79s-.13.59-.37.8c-.23.23-.52.34-.87.34h-11.38v10.2h15.22c.34,0,.64.12.87.34.26.22.37.48.37.79s-.12.58-.37.79c-.23.23-.52.34-.87.34h-16.47Z"/>
  <path class="st3" d="M168.53,152.21c2.39,0,4.44.71,6.14,2.14,1.69,1.43,2.53,3.15,2.53,5.18,0,1.79-.69,3.38-2.07,4.74-1.35,1.35-3.06,2.17-5.13,2.47l5.91,11.01c.15.28.17.57.06.86-.11.29-.32.5-.62.64-.17.08-.35.11-.54.11-.51,0-.88-.21-1.1-.62l-6.41-11.88h-6.93v11.2c0,.3-.12.57-.37.8-.23.21-.52.32-.87.32s-.62-.11-.87-.32c-.24-.23-.36-.5-.36-.8v-24.71c0-.32.12-.58.36-.8.25-.22.53-.32.87-.32h9.4ZM174.75,159.53c0-1.4-.61-2.6-1.83-3.58-1.22-1-2.68-1.5-4.39-1.5h-8.16v10.14h8.3c1.69-.03,3.12-.53,4.29-1.52,1.19-.99,1.78-2.17,1.78-3.55"/>
  <path class="st3" d="M216.45,178.96l-.02-.02h-.02s-18.98-22.36-18.98-22.36v21.64c0,.32-.12.58-.37.79-.24.23-.53.34-.88.34s-.64-.11-.88-.34c-.25-.21-.37-.48-.37-.79v-24.96c0-.55.28-.9.83-1.08.57-.18,1.03-.06,1.39.37l19,22.35v-21.65c0-.32.11-.58.35-.8.25-.23.54-.34.87-.34.35,0,.65.11.89.34.23.22.35.48.35.8v25.04l-.02.12-.02.09-.04.12-.04.1-.07.09-.06.09-.08.09-.09.08-.06.04-.04.04-.06.04-.12.05-.08.04-.15.04-.08.02h-.23s-.25,0-.25,0l-.08-.02-.17-.06-.08-.06-.14-.08-.08-.05-.07-.06-.06-.05Z"/>
  <path class="st3" d="M261.14,177.78l-11.28-24.89-.1-.2-.09-.08-.09-.09-.1-.08-.08-.06c-.14-.09-.29-.15-.45-.17h-.11l-.11-.02-.16.02h-.1c-.15.02-.3.08-.43.17l-.08.06-.1.08-.08.09-.08.08-.1.2-11.29,24.89c-.14.29-.14.58,0,.87.13.29.35.49.66.61.15.07.23.09.23.09h.25c.55,0,.93-.23,1.14-.7l10.14-22.36,10.14,22.36c.21.47.59.7,1.14.7.17,0,.33-.03.48-.09.32-.11.54-.31.66-.61.14-.29.14-.58,0-.87"/>
  <path class="st3" d="M72.29,203.7c-.14,0-.27-.04-.36-.14-.11-.09-.15-.21-.15-.34v-10.38c0-.14.04-.25.15-.34.1-.1.22-.14.36-.14h2.88c1.71,0,3.16.55,4.37,1.65,1.21,1.11,1.81,2.44,1.81,4s-.6,2.89-1.81,3.99c-1.21,1.11-2.67,1.66-4.37,1.66l-2.87.03h0ZM72.8,202.75l2.35-.03c1.42,0,2.64-.46,3.64-1.37,1.01-.92,1.52-2.03,1.52-3.33s-.51-2.41-1.52-3.32c-1-.92-2.22-1.37-3.63-1.37h-2.36v9.43Z"/>
  <path class="st3" d="M90.17,203.7c-.15,0-.27-.05-.37-.14-.1-.09-.15-.2-.15-.33v-10.39c0-.13.05-.24.15-.33.1-.1.22-.15.37-.14h6.86c.15.01.27.06.37.15.1.1.15.21.15.33,0,.13-.05.25-.15.34-.1.09-.22.13-.37.13h-6.34s0,4.23,0,4.23h4.75c.14,0,.26.05.36.14.1.09.16.2.16.33s-.06.24-.16.34c-.1.09-.22.14-.36.14h-4.75v4.25h6.34c.15,0,.27.05.37.14.1.09.15.2.15.33s-.05.24-.15.33c-.1.09-.22.14-.37.14h-6.86Z"/>
  <path class="st3" d="M115.67,192.4c.13,0,.25.05.35.14.1.09.15.2.15.33v9.88h5.61c.14,0,.26.05.36.14.11.09.16.2.16.33s-.05.25-.16.34c-.09.09-.22.13-.36.13h-6.12c-.15,0-.27-.04-.38-.13-.09-.09-.14-.21-.14-.34v-10.35c0-.13.05-.24.14-.33.11-.09.23-.14.38-.14"/>
  <path class="st3" d="M134.13,192.67l-.05-.09-.04-.03-.03-.04-.04-.03-.03-.02-.19-.07h-.09s-.07,0-.07,0h-.05l-.18.07-.03.02-.05.03-.03.04-.04.03-.04.09-4.71,10.37c-.06.12-.06.24,0,.36.05.12.15.21.28.25l.09.04h.11c.22,0,.38-.09.47-.29l4.23-9.32,4.23,9.32c.09.2.24.29.48.29l.2-.04c.13-.05.22-.13.27-.25.06-.12.06-.25,0-.36l-4.7-10.37Z"/>
  <path class="st3" d="M159.71,198.5c-1.39-.02-2.43-.37-3.13-1.05-.56-.54-.83-1.18-.79-1.9.05-.89.44-1.64,1.18-2.26.74-.62,1.62-.92,2.65-.92.91,0,1.72.17,2.44.52.86.41,1.4,1.01,1.63,1.79.03.13,0,.25-.06.36-.07.11-.18.18-.32.22-.14.03-.27.02-.39-.05-.12-.06-.2-.16-.23-.28-.16-.55-.56-.96-1.21-1.25-.54-.24-1.16-.37-1.86-.37-.75,0-1.4.22-1.94.67-.54.44-.83.98-.86,1.63-.03.45.15.86.52,1.21.5.48,1.3.74,2.39.76.15,0,.27.05.37.14.1.09.14.2.14.34,0,.13-.05.24-.16.33-.1.09-.22.13-.36.13h0ZM157.43,203.19c-.86-.42-1.41-1.02-1.63-1.8-.04-.12-.02-.24.05-.35.07-.11.18-.18.32-.22.13-.03.26-.02.39.05.12.07.2.16.23.28.15.55.56.97,1.21,1.26.54.24,1.16.35,1.85.35.76,0,1.4-.21,1.95-.66.54-.44.83-.98.86-1.62.03-.46-.15-.87-.52-1.22-.5-.49-1.3-.74-2.4-.76-.14,0-.26-.05-.36-.14-.1-.1-.15-.21-.15-.34,0-.13.06-.24.16-.33.1-.09.22-.13.37-.13,1.38.02,2.42.37,3.13,1.06.56.54.83,1.18.79,1.9-.04.89-.43,1.65-1.17,2.26-.74.62-1.62.92-2.66.92-.91,0-1.72-.16-2.43-.51"/>
  <path class="st3" d="M176.91,192.67l-.04-.09-.03-.03-.03-.04-.05-.03-.03-.02-.19-.07h-.09s-.07,0-.07,0h-.04l-.18.07-.03.02-.04.03-.04.05-.04.03-.04.09-4.7,10.37c-.06.12-.06.24,0,.36.05.12.14.21.27.25l.09.04h.1c.23,0,.39-.09.48-.29l4.23-9.32,4.23,9.32c.08.2.25.29.47.29l.2-.04c.13-.05.23-.13.28-.25.06-.12.06-.25,0-.36l-4.7-10.37Z"/>
  <path class="st3" d="M189.73,192.4c.14,0,.26.05.36.14.1.09.15.2.15.33v9.88h5.6c.14,0,.26.05.36.14.1.09.16.2.16.33s-.05.25-.16.34c-.1.09-.22.13-.36.13h-6.12c-.15,0-.27-.04-.38-.13-.1-.09-.14-.21-.14-.34v-10.35c0-.13.04-.24.14-.33.11-.09.23-.14.38-.14"/>
  <path class="st0" d="M94.22,120.15c2.77-.02,7.04-1.18,10.02-4.71,2.92,3.5,7.18,4.62,9.94,4.61,2.78,0,7.04-1.17,10.04-4.7,2.92,3.49,7.17,4.62,9.94,4.61,2.77-.01,7.04-1.17,10.03-4.7,2.92,3.5,7.17,4.63,9.94,4.61,2.78-.01,7.04-1.18,10.03-4.7,2.92,3.49,7.17,4.62,9.94,4.61,1.09,0,2.05-.15,2.95-.34v-4.76c-1,.23-2.08.41-3.31.41-2.76.01-6.98-1.11-9.87-4.61-2.97,3.52-7.2,4.69-9.96,4.7-2.76.02-6.97-1.11-9.88-4.61-2.96,3.52-7.21,4.68-9.96,4.7-2.74.02-6.97-1.11-9.87-4.6-2.97,3.53-7.21,4.69-9.97,4.7-2.75.01-6.97-1.11-9.87-4.61-2.96,3.53-7.21,4.69-9.96,4.71-1.36,0-2.42-.32-3.3-.79v4.74c.86.42,1.86.72,3.13.72Z"/>
  <path class="st2" d="M133.82,45.28c-2.42-1.89-5.88-4.73-8.5-7.92-2.86-3.48-4.3-6.84-4.27-10,.05-7.11,5.88-12.86,12.99-12.81,7.11.05,12.86,5.88,12.81,12.99-.02,3.19-1.41,6.36-4.26,9.7-2.53,2.97-5.84,5.67-8.78,8.05Z"/>
  <path class="st2" d="M133.84,42.98c-2.11-1.64-5.1-4.1-7.39-6.88-2.48-3.02-3.73-5.94-3.71-8.69.04-6.18,5.1-11.18,11.29-11.13,6.18.04,11.17,5.1,11.13,11.28-.02,2.77-1.23,5.53-3.7,8.42-2.2,2.59-5.07,4.92-7.63,6.99Z"/>
  <path class="st2" d="M133.86,40.89c-1.82-1.42-4.4-3.54-6.37-5.93-2.14-2.61-3.22-5.13-3.2-7.49.04-5.33,4.4-9.64,9.73-9.6,5.33.03,9.63,4.4,9.6,9.73-.02,2.39-1.06,4.76-3.19,7.26-1.9,2.23-4.37,4.25-6.57,6.03Z"/>
  <path class="st2" d="M133.87,38.91c-1.54-1.2-3.74-3.01-5.41-5.04-1.82-2.21-2.73-4.35-2.72-6.36.03-4.53,3.74-8.18,8.27-8.15,4.52.03,8.18,3.74,8.15,8.27-.02,2.03-.9,4.04-2.71,6.16-1.61,1.9-3.72,3.61-5.58,5.12Z"/>
  <path class="st2" d="M133.89,36.74c-1.24-.97-3.01-2.42-4.35-4.06-1.46-1.78-2.2-3.5-2.18-5.12.02-3.64,3.01-6.58,6.65-6.56,3.64.03,6.58,3.01,6.56,6.65-.02,1.63-.73,3.25-2.18,4.96-1.3,1.52-2.99,2.9-4.49,4.12Z"/>
  <path class="st2" d="M133.91,34.62c-.95-.74-2.3-1.85-3.32-3.09-1.12-1.36-1.68-2.67-1.67-3.91.02-2.78,2.3-5.03,5.08-5.01,2.78.02,5.02,2.3,5.01,5.08,0,1.24-.55,2.48-1.66,3.78-.99,1.16-2.28,2.21-3.43,3.15Z"/>
  <path class="st2" d="M133.93,32.37c-.64-.5-1.54-1.24-2.23-2.07-.75-.91-1.12-1.79-1.12-2.62.01-1.86,1.54-3.37,3.4-3.35,1.86,0,3.37,1.54,3.36,3.4,0,.83-.37,1.66-1.11,2.54-.67.78-1.53,1.48-2.3,2.11Z"/>
  <path class="st2" d="M134.09,64.45c2.42,1.89,5.88,4.73,8.5,7.92,2.86,3.48,4.3,6.84,4.27,10.01-.05,7.11-5.88,12.86-12.99,12.81-7.11-.05-12.86-5.88-12.81-12.99.02-3.19,1.41-6.36,4.26-9.7,2.53-2.97,5.84-5.67,8.78-8.05Z"/>
  <path class="st2" d="M134.07,66.75c2.11,1.64,5.1,4.11,7.39,6.88,2.48,3.02,3.73,5.94,3.71,8.69-.04,6.18-5.1,11.18-11.29,11.13-6.18-.04-11.17-5.1-11.13-11.28.02-2.77,1.23-5.53,3.7-8.42,2.2-2.59,5.07-4.92,7.63-6.99Z"/>
  <path class="st2" d="M134.05,68.84c1.82,1.42,4.4,3.54,6.37,5.93,2.14,2.6,3.22,5.13,3.2,7.49-.04,5.33-4.4,9.64-9.73,9.6-5.33-.04-9.63-4.4-9.6-9.73.02-2.39,1.06-4.76,3.19-7.26,1.9-2.23,4.37-4.25,6.57-6.03Z"/>
  <path class="st2" d="M134.03,70.82c1.54,1.2,3.74,3.01,5.41,5.04,1.82,2.21,2.73,4.35,2.72,6.36-.03,4.52-3.74,8.18-8.27,8.15-4.52-.03-8.18-3.74-8.15-8.27.02-2.03.9-4.04,2.71-6.16,1.61-1.89,3.71-3.61,5.58-5.12Z"/>
  <path class="st2" d="M134.02,72.99c1.24.97,3.01,2.42,4.35,4.06,1.46,1.78,2.2,3.5,2.18,5.12-.02,3.64-3.01,6.58-6.65,6.56-3.64-.03-6.58-3.01-6.56-6.65.01-1.63.73-3.25,2.18-4.96,1.3-1.52,2.99-2.9,4.49-4.12Z"/>
  <path class="st2" d="M134,75.11c.95.74,2.3,1.85,3.32,3.1,1.12,1.36,1.68,2.67,1.67,3.91-.02,2.78-2.3,5.03-5.08,5.01-2.78-.02-5.02-2.29-5-5.08,0-1.24.55-2.48,1.66-3.78.99-1.16,2.28-2.21,3.43-3.15Z"/>
  <path class="st2" d="M133.98,77.36c.64.5,1.54,1.24,2.23,2.07.75.91,1.12,1.79,1.12,2.62-.01,1.86-1.54,3.37-3.4,3.35-1.86,0-3.37-1.54-3.36-3.4,0-.83.37-1.66,1.11-2.54.67-.78,1.53-1.48,2.3-2.11Z"/>
  <path class="st2" d="M143.61,54.31c1.89-2.42,4.73-5.88,7.92-8.5,3.48-2.86,6.84-4.3,10.01-4.27,7.11.05,12.86,5.88,12.81,12.99-.05,7.11-5.88,12.86-12.99,12.81-3.19-.02-6.36-1.41-9.7-4.25-2.98-2.53-5.67-5.84-8.05-8.78Z"/>
  <path class="st2" d="M145.91,54.33c1.64-2.11,4.1-5.1,6.88-7.39,3.02-2.48,5.94-3.73,8.69-3.71,6.18.04,11.18,5.1,11.13,11.29-.04,6.18-5.1,11.17-11.28,11.13-2.77-.02-5.53-1.23-8.42-3.7-2.59-2.2-4.92-5.07-6.99-7.63Z"/>
  <path class="st2" d="M148,54.35c1.42-1.82,3.54-4.4,5.93-6.37,2.61-2.14,5.13-3.22,7.49-3.2,5.33.04,9.64,4.4,9.6,9.73-.04,5.33-4.4,9.63-9.73,9.6-2.39-.02-4.76-1.06-7.26-3.19-2.23-1.9-4.25-4.37-6.03-6.57Z"/>
  <path class="st2" d="M149.98,54.36c1.2-1.54,3.01-3.74,5.04-5.41,2.21-1.82,4.35-2.73,6.36-2.72,4.53.03,8.18,3.74,8.15,8.27-.03,4.52-3.74,8.18-8.27,8.15-2.03-.02-4.04-.9-6.17-2.71-1.89-1.61-3.61-3.72-5.12-5.58Z"/>
  <path class="st2" d="M152.15,54.38c.97-1.24,2.42-3.01,4.06-4.35,1.78-1.46,3.5-2.2,5.12-2.18,3.64.02,6.58,3.01,6.56,6.65-.03,3.64-3.01,6.58-6.65,6.56-1.63-.02-3.25-.73-4.96-2.18-1.52-1.3-2.9-2.99-4.12-4.49Z"/>
  <path class="st2" d="M154.27,54.4c.74-.95,1.85-2.3,3.09-3.32,1.36-1.12,2.67-1.68,3.91-1.67,2.78.02,5.03,2.3,5.01,5.08-.02,2.78-2.29,5.02-5.08,5.01-1.24,0-2.48-.55-3.78-1.66-1.17-.99-2.21-2.28-3.15-3.43Z"/>
  <path class="st2" d="M156.52,54.41c.49-.64,1.24-1.54,2.07-2.23.91-.75,1.79-1.12,2.62-1.12,1.86.01,3.37,1.54,3.36,3.4-.01,1.86-1.54,3.37-3.4,3.36-.83,0-1.66-.37-2.54-1.11-.78-.67-1.48-1.53-2.11-2.3Z"/>
  <path class="st2" d="M124.52,55.04c-1.89,2.42-4.73,5.88-7.92,8.5-3.48,2.86-6.84,4.3-10.01,4.27-7.11-.05-12.86-5.88-12.81-12.99.05-7.12,5.88-12.86,12.99-12.81,3.19.02,6.36,1.41,9.7,4.25,2.97,2.53,5.67,5.84,8.05,8.78Z"/>
  <path class="st2" d="M122.23,55.02c-1.64,2.11-4.11,5.1-6.88,7.39-3.02,2.48-5.94,3.73-8.69,3.71-6.18-.04-11.18-5.1-11.13-11.29.04-6.18,5.1-11.17,11.28-11.13,2.77.02,5.53,1.23,8.42,3.7,2.59,2.2,4.92,5.07,6.99,7.63Z"/>
  <path class="st2" d="M120.13,55c-1.42,1.82-3.54,4.4-5.93,6.37-2.61,2.14-5.13,3.22-7.49,3.2-5.33-.04-9.64-4.4-9.6-9.73.04-5.33,4.4-9.63,9.73-9.6,2.39.02,4.76,1.06,7.26,3.19,2.23,1.9,4.25,4.37,6.03,6.57Z"/>
  <path class="st2" d="M118.16,54.99c-1.2,1.54-3.01,3.74-5.04,5.41-2.21,1.82-4.35,2.73-6.36,2.72-4.52-.03-8.18-3.74-8.15-8.27.03-4.52,3.74-8.18,8.27-8.15,2.03.02,4.04.9,6.16,2.71,1.9,1.61,3.61,3.72,5.12,5.58Z"/>
  <path class="st2" d="M115.99,54.97c-.97,1.24-2.42,3.01-4.06,4.35-1.78,1.46-3.5,2.2-5.12,2.18-3.64-.02-6.58-3.01-6.56-6.65.03-3.64,3.01-6.58,6.65-6.56,1.63.02,3.25.73,4.96,2.18,1.52,1.3,2.9,2.99,4.12,4.49Z"/>
  <path class="st2" d="M113.87,54.96c-.74.95-1.85,2.3-3.1,3.32-1.36,1.12-2.67,1.68-3.91,1.67-2.78-.02-5.03-2.3-5.01-5.08.02-2.78,2.3-5.02,5.08-5.01,1.24,0,2.48.55,3.78,1.66,1.16.99,2.21,2.28,3.15,3.43Z"/>
  <path class="st2" d="M111.61,54.94c-.5.64-1.24,1.54-2.07,2.23-.91.75-1.79,1.12-2.62,1.12-1.86-.01-3.37-1.54-3.35-3.4,0-1.86,1.54-3.37,3.4-3.36.83,0,1.66.37,2.54,1.11.78.67,1.48,1.53,2.11,2.3Z"/>
  <path class="st1" d="M128.34,55.07l-.11-.13,5.71,5.71,5.75-5.75-5.75-5.75-5.75,5.75c-2.85-3.52-6.06-7.44-9.61-10.46-4.04-3.44-7.89-5.13-11.75-5.15-8.62-.06-15.68,6.91-15.74,15.52-.06,8.62,6.91,15.68,15.53,15.74,3.83.03,7.91-1.72,12.12-5.18,3.87-3.18,7.3-7.36,9.6-10.3Z"/>
  <path class="st1" d="M134.11,60.64c-3.57,2.89-7.57,6.15-10.64,9.75-3.44,4.04-5.13,7.89-5.15,11.75-.06,8.62,6.9,15.68,15.52,15.74,8.62.06,15.68-6.91,15.74-15.52.03-3.83-1.72-7.91-5.18-12.12-3.18-3.87-7.36-7.31-10.3-9.6Z"/>
  <path class="st1" d="M161.52,38.81c-3.83-.03-7.91,1.71-12.12,5.18-3.87,3.18-7.3,7.36-9.6,10.3,2.89,3.57,6.15,7.57,9.75,10.64,4.04,3.44,7.89,5.13,11.75,5.15,8.62.06,15.69-6.91,15.74-15.52.06-8.62-6.91-15.68-15.52-15.74Z"/>
  <path class="st1" d="M133.79,49.09c3.56-2.89,7.57-6.15,10.64-9.75,3.44-4.04,5.13-7.89,5.15-11.75.06-8.62-6.9-15.68-15.52-15.74-8.62-.06-15.68,6.91-15.74,15.52-.03,3.83,1.72,7.91,5.18,12.12,3.18,3.87,7.36,7.31,10.3,9.6Z"/>
  <rect class="st3" x="-67.08" y="-96.16" width=".95" height="7.71"/>
</svg>