<?xml version="1.0" encoding="UTF-8"?>
<svg id="Capa_1" xmlns="http://www.w3.org/2000/svg" version="1.1" viewBox="0 0 463.4 62.37">
  <!-- Generator: Adobe Illustrator 30.2.1, SVG Export Plug-In . SVG Version: 2.1.1 Build 1)  -->
  <defs>
    <style>
      .st0 {
        stroke-width: .61px;
      }

      .st0, .st1, .st2, .st3 {
        fill: none;
      }

      .st0, .st2, .st3 {
        stroke: #83898e;
      }

      .st4 {
        fill: #83898e;
      }

      .st2 {
        stroke-width: .34px;
      }

      .st3 {
        stroke-width: 1.01px;
      }
    </style>
  </defs>
  <rect class="st1" x="-188.99" y="-266.35" width="841.89" height="595.28"/>
  <g>
    <path class="st4" d="M73.66,19.3h-5.77c-.24,0-.45-.08-.63-.23-.17-.16-.25-.35-.25-.58s.08-.42.25-.58c.18-.17.38-.25.63-.25h13.27c.25,0,.45.08.62.25.17.16.26.35.26.58s-.08.42-.26.58c-.17.15-.37.23-.62.23h-5.77v17.29c0,.23-.08.43-.25.6-.17.16-.38.23-.63.23s-.44-.07-.61-.23c-.17-.17-.25-.37-.25-.6v-17.29h0Z"/>
    <path class="st4" d="M101.11,20.65l7.14,16.26c.14.34.41.51.8.51.12,0,.23-.02.34-.07.23-.08.38-.23.47-.44.1-.21.1-.42,0-.63l-7.94-18.09s-.04-.1-.07-.15c0,.01-.02-.01-.06-.06-.03-.04-.05-.06-.06-.07,0,0-.04-.02-.07-.06l-.06-.04c-.1-.06-.2-.11-.32-.12h-.07l-.08-.02s-.05,0-.11.02h-.07c-.11.01-.21.06-.31.12.01,0,0,0-.06.04-.04.03-.06.05-.07.06,0,0-.03.03-.06.07l-.06.06s-.05.11-.07.15l-7.94,18.09c-.1.21-.1.42,0,.63.09.21.24.36.46.44.11.05.16.07.16.07h.18c.38,0,.66-.17.8-.51"/>
    <path class="st4" d="M135.24,17.7c.22.07.39.21.49.42.1.21.11.41.03.62l-6.73,18.12s-.01,0-.03.06c0,.02-.01.03-.01.04-.02.04-.04.07-.07.1-.02.03-.02.04-.02.03-.03.04-.06.07-.1.11,0-.01,0,0-.03.02s-.05.04-.09.06c-.02.01-.04.02-.06.03-.03.02-.07.04-.1.06h-.04s-.05.03-.09.04h-.05s-.09.01-.13.01-.08,0-.13-.01h-.04s-.07-.02-.1-.03t0,0h-.02s-.08-.05-.12-.07c-.02,0-.03-.02-.04-.03-.03-.02-.06-.04-.09-.06s-.04-.04-.03-.02c-.04-.04-.07-.07-.1-.11v-.02h-.01s-.06-.06-.08-.1c0-.01,0-.02-.01-.04-.02-.05-.03-.07-.03-.06l-6.73-18.12c-.09-.21-.08-.42.03-.62.1-.21.27-.35.49-.42.23-.07.46-.06.67.04.21.09.36.25.44.47l5.91,15.9,5.93-15.9c.07-.22.22-.38.44-.47.21-.1.32-.15.32-.15,0,0,.12.03.35.11"/>
    <path class="st4" d="M148.77,37.42c-.24,0-.45-.08-.62-.25-.17-.16-.26-.35-.26-.58v-18.13c0-.23.09-.42.26-.58.18-.18.39-.26.62-.25l11.59.03c.24,0,.45.08.61.25.18.16.26.36.26.58s-.08.43-.26.6c-.16.15-.37.23-.61.23l-10.71-.03v7.41h8.01c.24,0,.45.08.61.25.17.15.26.35.26.58s-.09.42-.26.58c-.16.17-.37.25-.61.25h-8.01v7.41h10.71c.24,0,.45.09.61.25.18.16.26.35.26.58s-.08.42-.26.58c-.16.17-.37.25-.61.25h-11.59Z"/>
    <path class="st4" d="M180.79,17.69c1.68,0,3.12.52,4.32,1.55,1.19,1.04,1.78,2.29,1.78,3.76,0,1.3-.48,2.45-1.45,3.45-.96.98-2.16,1.58-3.61,1.79l4.16,8c.11.2.12.41.04.62s-.22.37-.44.47c-.12.06-.24.08-.38.08-.36,0-.62-.15-.77-.45l-4.51-8.64h-4.88v8.14c0,.22-.09.42-.26.58-.16.15-.37.23-.61.23s-.44-.08-.61-.23c-.17-.17-.25-.36-.25-.58v-17.96c0-.23.08-.43.25-.58s.37-.23.61-.23h6.62-.01ZM185.17,23.01c0-1.02-.43-1.89-1.29-2.61-.85-.72-1.89-1.09-3.09-1.09h-5.74v7.37h5.84c1.19-.02,2.19-.39,3.02-1.1.84-.72,1.26-1.58,1.26-2.58"/>
    <path class="st4" d="M214.52,37.13v-.02h-.03l-13.36-16.25v15.73c0,.23-.09.42-.26.58-.17.17-.38.25-.62.25s-.45-.08-.62-.25c-.17-.15-.26-.35-.26-.58v-18.15c0-.4.2-.65.58-.78.4-.13.73-.04.98.27l13.37,16.25v-15.74c0-.23.08-.42.25-.58.17-.16.38-.25.61-.25.25,0,.46.08.63.25.16.15.25.35.25.58v18.2s0,.06-.02.09c0,.02,0,.04-.01.06,0,.04-.02.07-.03.08,0,.02-.02.04-.04.07,0,.03-.02.05-.04.07,0,.01-.02.04-.04.07-.01.02-.04.06-.05.07l-.06.06s-.06.04-.04.03.01,0-.03.03c0,0-.02.02-.04.03-.03.01-.06.03-.09.04-.02.01-.04.02-.06.03-.03.01-.06.02-.1.03-.03,0-.05.01-.06.01h-.39s-.08-.05-.11-.06c-.01,0-.03-.02-.06-.04-.04-.02-.07-.04-.1-.06-.01,0-.03-.02-.06-.04l-.04-.04s-.02-.01-.05-.04"/>
    <path class="st4" d="M245.97,36.28l-7.94-18.09s-.04-.1-.07-.15c0,.01-.03-.01-.06-.06-.03-.04-.05-.06-.06-.07,0,0-.03-.02-.07-.06l-.06-.04c-.1-.06-.2-.11-.32-.12h-.07l-.08-.02s-.06,0-.11.02h-.07c-.11.02-.21.06-.31.12.01,0,0,0-.05.04-.04.03-.07.05-.07.06-.01,0-.04.03-.06.07l-.05.06s-.06.11-.07.15l-7.94,18.09c-.1.21-.1.42,0,.63.09.21.24.36.46.44.11.05.16.07.16.07h.18c.39,0,.66-.17.8-.51l7.14-16.26,7.14,16.26c.15.34.42.51.8.51.12,0,.23-.02.34-.07.22-.08.39-.23.47-.44.1-.21.1-.42,0-.63"/>
    <path class="st4" d="M272.24,37.65c-.24,0-.46-.08-.63-.24-.18-.16-.26-.37-.26-.6v-18.34c0-.23.08-.43.26-.6.17-.18.39-.25.63-.25h4.92c2.92,0,5.41.97,7.48,2.92,2.06,1.97,3.1,4.31,3.1,7.06s-1.03,5.11-3.1,7.05c-2.07,1.96-4.57,2.94-7.48,2.94l-4.91.06h-.01ZM273.13,35.96l4.02-.06c2.44,0,4.52-.81,6.23-2.42,1.73-1.63,2.6-3.58,2.6-5.88s-.87-4.25-2.6-5.87c-1.72-1.63-3.79-2.43-6.22-2.43h-4.04v16.66h.01Z"/>
    <path class="st4" d="M297.82,37.64c-.25,0-.45-.08-.62-.26-.17-.15-.26-.35-.26-.58v-18.35c0-.23.09-.42.26-.59.18-.18.39-.26.62-.25l11.73.03c.25,0,.46.09.63.24.17.18.26.37.26.59s-.09.44-.26.6c-.17.15-.37.23-.63.23l-10.85-.03v7.51h8.12c.24,0,.45.09.61.25.17.16.27.35.27.58s-.1.43-.27.58c-.17.17-.38.26-.61.26h-8.12v7.5h10.85c.25,0,.46.08.63.25.17.15.26.35.26.58s-.09.43-.26.58c-.17.18-.37.26-.63.26h-11.73v.02Z"/>
    <path class="st4" d="M337.43,17.69c.23,0,.43.08.61.25.17.15.25.35.25.58v17.45h9.6c.24,0,.45.09.61.24.18.16.27.36.27.58s-.09.44-.27.6c-.16.16-.38.24-.61.24h-10.46c-.26,0-.47-.08-.65-.24-.16-.16-.25-.37-.25-.6v-18.28c0-.23.09-.43.25-.58.18-.17.39-.25.65-.25"/>
    <path class="st4" d="M365.99,18.17s-.04-.1-.08-.15c0,.02,0-.02-.06-.05-.01-.05-.04-.07-.06-.08,0,0-.02-.02-.07-.06l-.06-.03c-.09-.06-.2-.11-.32-.12h-.14s-.06-.01-.12,0h-.08c-.1.02-.2.07-.3.12.01,0-.01,0-.06.03-.03.04-.06.05-.08.06,0,.02-.02.04-.06.08l-.06.05s-.05.11-.06.15l-8.05,18.31c-.1.22-.1.43,0,.65.09.21.25.35.48.44.1.03.16.07.16.07h.18c.39,0,.65-.18.8-.51l7.23-16.47,7.23,16.47c.15.33.42.51.82.51.11,0,.22-.03.34-.07.22-.09.38-.23.47-.44.1-.22.1-.44,0-.65l-8.03-18.31h-.02Z"/>
    <path class="st4" d="M407.73,28.47c-2.37-.03-4.14-.65-5.36-1.86-.96-.97-1.41-2.09-1.36-3.37.09-1.56.76-2.89,2.03-3.98,1.26-1.09,2.77-1.63,4.54-1.63,1.56,0,2.95.31,4.16.92,1.47.72,2.4,1.78,2.79,3.17.06.22.02.43-.1.63s-.31.32-.54.39c-.24.06-.46.03-.67-.09-.21-.11-.34-.27-.39-.5-.28-.97-.97-1.7-2.08-2.2-.93-.44-1.99-.65-3.17-.65-1.29,0-2.4.39-3.32,1.18-.93.77-1.42,1.73-1.48,2.87-.04.8.26,1.51.89,2.14.85.85,2.21,1.3,4.09,1.34.25.01.46.09.63.24.16.16.24.37.24.6s-.09.42-.27.58c-.17.16-.37.24-.62.24h0v-.02ZM403.83,36.75c-1.47-.74-2.41-1.8-2.78-3.19-.06-.21-.04-.43.08-.63.13-.19.32-.32.55-.38s.44-.03.67.08c.2.12.34.29.4.49.26.98.96,1.71,2.07,2.23.92.41,1.98.62,3.17.62,1.3,0,2.4-.38,3.33-1.17.93-.77,1.41-1.72,1.48-2.85.04-.81-.27-1.53-.89-2.15-.85-.87-2.22-1.31-4.09-1.34-.25,0-.45-.09-.62-.26-.17-.16-.25-.37-.25-.58.01-.24.11-.43.28-.58.17-.16.37-.24.62-.24,2.37.03,4.15.66,5.35,1.87.96.95,1.42,2.07,1.35,3.34-.07,1.58-.74,2.91-2.01,3.99-1.26,1.1-2.77,1.64-4.54,1.64-1.55,0-2.95-.3-4.16-.9"/>
    <path class="st4" d="M433.14,18.17s-.04-.1-.06-.15c0,.02-.03-.02-.06-.05-.04-.05-.06-.07-.06-.08,0,0-.03-.02-.07-.06l-.06-.03c-.1-.06-.2-.11-.33-.12h-.15s-.06-.01-.11,0h-.08c-.1.02-.2.07-.3.12,0,0-.02,0-.06.03-.04.04-.07.05-.07.05-.01.02-.04.04-.06.09l-.06.05s-.06.11-.08.15l-8.03,18.31c-.11.22-.11.43,0,.65.08.21.24.35.46.44.11.03.16.07.16.07h.17c.4,0,.67-.18.82-.51l7.23-16.47,7.23,16.47c.14.33.42.51.8.51.12,0,.24-.03.34-.07.23-.09.39-.23.47-.44.11-.22.11-.44,0-.65l-8.04-18.31h0Z"/>
    <path class="st4" d="M452.04,17.69c.24,0,.44.08.62.25.17.15.27.35.27.58v17.45h9.58c.25,0,.45.09.62.24.18.16.27.36.27.58s-.09.44-.27.6c-.17.16-.37.24-.62.24h-10.47c-.24,0-.45-.08-.64-.24-.17-.16-.24-.37-.24-.6v-18.28c0-.23.08-.43.24-.58.18-.17.39-.25.64-.25"/>
    <path class="st0" d="M2.24,62.07c1.52-.01,3.88-.67,5.51-2.68,1.61,1.99,3.95,2.63,5.47,2.62,1.53,0,3.88-.67,5.53-2.67,1.61,1.98,3.95,2.63,5.47,2.62,1.53,0,3.88-.67,5.52-2.67,1.61,1.99,3.95,2.63,5.47,2.62,1.53,0,3.88-.67,5.52-2.67,1.61,1.99,3.94,2.63,5.47,2.62.6,0,1.13-.09,1.62-.2v-2.7c-.55.13-1.14.23-1.82.23-1.52,0-3.84-.63-5.43-2.62-1.63,2-3.97,2.66-5.48,2.67-1.52,0-3.84-.63-5.44-2.62-1.63,2-3.97,2.66-5.48,2.67s-3.84-.63-5.43-2.62c-1.63,2.01-3.97,2.66-5.49,2.67-1.51,0-3.83-.63-5.43-2.62-1.63,2-3.96,2.66-5.48,2.68-.75,0-1.33-.19-1.82-.45v2.69c.47.24,1.02.41,1.72.41v.02Z"/>
    <path class="st2" d="M24.03,19.51c-1.34-1.08-3.23-2.69-4.68-4.5-1.57-1.97-2.37-3.89-2.35-5.69.03-4.04,3.24-7.31,7.15-7.28,3.92.03,7.08,3.34,7.05,7.38,0,1.81-.78,3.62-2.34,5.51-1.39,1.69-3.21,3.22-4.83,4.57h0Z"/>
    <path class="st2" d="M24.04,18.21c-1.16-.93-2.81-2.33-4.07-3.91-1.37-1.72-2.05-3.38-2.04-4.94.03-3.52,2.81-6.35,6.21-6.33,3.4.02,6.15,2.9,6.13,6.42,0,1.57-.68,3.14-2.03,4.79-1.21,1.47-2.79,2.8-4.2,3.97h0Z"/>
    <path class="st2" d="M24.05,17.02c-1-.81-2.42-2.01-3.5-3.37-1.18-1.48-1.77-2.91-1.76-4.26.02-3.03,2.42-5.48,5.36-5.46,2.93.02,5.3,2.5,5.28,5.53,0,1.35-.58,2.71-1.76,4.13-1.04,1.27-2.41,2.41-3.62,3.42h0Z"/>
    <path class="st2" d="M24.06,15.89c-.85-.68-2.06-1.71-2.98-2.86-1-1.26-1.5-2.47-1.49-3.61.02-2.57,2.06-4.65,4.55-4.64,2.49.02,4.5,2.12,4.49,4.7,0,1.15-.5,2.3-1.49,3.51-.89,1.08-2.05,2.05-3.07,2.91h0Z"/>
    <path class="st2" d="M24.07,14.66c-.69-.55-1.65-1.38-2.4-2.31-.8-1.01-1.21-1.99-1.2-2.91,0-2.07,1.65-3.74,3.66-3.73,2,.02,3.62,1.71,3.61,3.78,0,.93-.4,1.85-1.2,2.82-.71.87-1.64,1.65-2.47,2.34h0Z"/>
    <path class="st2" d="M24.08,13.46c-.52-.42-1.27-1.05-1.83-1.76-.61-.77-.92-1.52-.92-2.22,0-1.58,1.26-2.86,2.79-2.85,1.53,0,2.77,1.3,2.76,2.89,0,.7-.3,1.41-.91,2.15-.55.66-1.25,1.26-1.89,1.79h0Z"/>
    <path class="st2" d="M24.09,12.18c-.35-.28-.85-.7-1.23-1.18-.41-.52-.62-1.02-.62-1.49,0-1.06.85-1.91,1.87-1.91s1.85.87,1.85,1.93c0,.47-.2.95-.61,1.44-.37.44-.84.84-1.26,1.2h0Z"/>
    <path class="st2" d="M24.18,30.41c1.33,1.08,3.23,2.69,4.68,4.5,1.57,1.98,2.37,3.89,2.35,5.69-.03,4.04-3.24,7.31-7.15,7.28-3.91-.03-7.08-3.34-7.05-7.38,0-1.81.78-3.62,2.34-5.51,1.39-1.69,3.21-3.22,4.83-4.58Z"/>
    <path class="st2" d="M24.17,31.72c1.16.93,2.81,2.34,4.06,3.91,1.37,1.72,2.06,3.38,2.04,4.94-.02,3.51-2.81,6.35-6.21,6.33-3.4-.02-6.15-2.9-6.13-6.42,0-1.57.68-3.14,2.04-4.78,1.21-1.47,2.79-2.8,4.2-3.98h0Z"/>
    <path class="st2" d="M24.16,32.91c1,.8,2.42,2.01,3.51,3.37,1.18,1.48,1.77,2.92,1.76,4.26-.02,3.03-2.42,5.48-5.36,5.46-2.93-.02-5.3-2.5-5.28-5.53,0-1.36.58-2.71,1.75-4.13,1.05-1.27,2.41-2.42,3.62-3.43h0Z"/>
    <path class="st2" d="M24.15,34.03c.85.68,2.06,1.71,2.98,2.87,1,1.25,1.5,2.47,1.49,3.61-.02,2.57-2.06,4.65-4.55,4.63s-4.5-2.12-4.49-4.7c0-1.15.5-2.3,1.49-3.51.89-1.08,2.04-2.05,3.07-2.91h0Z"/>
    <path class="st2" d="M24.14,35.27c.68.55,1.66,1.38,2.4,2.31.8,1.01,1.21,1.99,1.2,2.91,0,2.07-1.66,3.74-3.66,3.73-2-.01-3.62-1.71-3.61-3.78,0-.93.4-1.85,1.2-2.82.71-.87,1.64-1.65,2.47-2.34h0Z"/>
    <path class="st2" d="M24.13,36.47c.52.42,1.26,1.05,1.83,1.76.61.77.92,1.52.92,2.22,0,1.58-1.26,2.86-2.8,2.84-1.53,0-2.76-1.3-2.75-2.89,0-.7.31-1.41.92-2.15.54-.66,1.25-1.26,1.89-1.79h0Z"/>
    <path class="st2" d="M24.12,37.75c.35.28.85.71,1.23,1.18.41.52.62,1.02.62,1.49,0,1.06-.85,1.92-1.87,1.9-1.03,0-1.85-.87-1.85-1.93,0-.47.2-.95.61-1.44.37-.44.84-.84,1.26-1.2h0Z"/>
    <path class="st2" d="M29.42,24.65c1.04-1.38,2.6-3.34,4.36-4.83,1.91-1.63,3.76-2.44,5.51-2.43,3.92.03,7.08,3.34,7.05,7.39-.02,4.04-3.23,7.31-7.15,7.28-1.76-.01-3.5-.8-5.34-2.42-1.64-1.44-3.12-3.32-4.43-4.99h0Z"/>
    <path class="st2" d="M30.69,24.66c.9-1.2,2.26-2.9,3.79-4.2,1.66-1.41,3.27-2.12,4.78-2.11,3.4.02,6.15,2.9,6.13,6.41-.02,3.51-2.81,6.35-6.21,6.33-1.52-.01-3.04-.7-4.64-2.1-1.43-1.25-2.71-2.88-3.85-4.34h0Z"/>
    <path class="st2" d="M31.84,24.67c.78-1.03,1.95-2.5,3.26-3.62,1.43-1.22,2.82-1.83,4.12-1.82,2.93.02,5.3,2.5,5.28,5.53s-2.42,5.48-5.36,5.46c-1.31-.01-2.62-.6-4-1.81-1.23-1.08-2.34-2.49-3.32-3.74h.02Z"/>
    <path class="st2" d="M32.93,24.68c.66-.88,1.65-2.12,2.77-3.08,1.22-1.03,2.4-1.55,3.5-1.54,2.49.02,4.5,2.12,4.49,4.7-.02,2.57-2.06,4.65-4.55,4.63-1.12,0-2.22-.51-3.39-1.54-1.04-.92-1.99-2.11-2.82-3.17Z"/>
    <path class="st2" d="M34.12,24.69c.53-.71,1.33-1.71,2.23-2.47.98-.83,1.93-1.25,2.81-1.24,2,.01,3.62,1.71,3.61,3.78s-1.66,3.74-3.66,3.73c-.9,0-1.79-.41-2.73-1.24-.84-.74-1.6-1.7-2.27-2.55h.01Z"/>
    <path class="st2" d="M35.29,24.7c.41-.54,1.02-1.3,1.7-1.89.75-.63,1.47-.95,2.15-.95,1.53.01,2.77,1.31,2.75,2.89,0,1.58-1.26,2.86-2.8,2.85-.68,0-1.36-.32-2.08-.94-.64-.56-1.22-1.3-1.73-1.95h.01Z"/>
    <path class="st2" d="M36.53,24.71c.27-.36.68-.87,1.14-1.26.5-.43.99-.64,1.44-.64,1.03,0,1.85.87,1.85,1.93s-.85,1.92-1.87,1.91c-.46,0-.92-.21-1.4-.64-.43-.38-.82-.87-1.16-1.31h0Z"/>
    <path class="st2" d="M18.91,25.06c-1.04,1.38-2.6,3.34-4.36,4.83-1.91,1.63-3.76,2.44-5.51,2.43-3.91-.03-7.08-3.34-7.05-7.39.02-4.04,3.23-7.31,7.15-7.28,1.76.01,3.5.81,5.34,2.42,1.64,1.44,3.12,3.32,4.43,4.99h0Z"/>
    <path class="st2" d="M17.65,25.05c-.9,1.2-2.26,2.9-3.79,4.2-1.66,1.41-3.27,2.12-4.78,2.11-3.4-.02-6.15-2.9-6.13-6.41.02-3.51,2.81-6.35,6.21-6.33,1.52,0,3.04.7,4.63,2.1,1.43,1.25,2.71,2.88,3.85,4.34h0Z"/>
    <path class="st2" d="M16.5,25.04c-.78,1.04-1.95,2.5-3.27,3.62-1.43,1.22-2.82,1.83-4.12,1.82-2.93-.02-5.31-2.5-5.28-5.54.02-3.03,2.42-5.47,5.36-5.45,1.32.01,2.62.61,4,1.81,1.23,1.08,2.34,2.48,3.32,3.74h-.01Z"/>
    <path class="st2" d="M15.41,25.03c-.66.88-1.65,2.13-2.77,3.07-1.22,1.03-2.4,1.55-3.5,1.54-2.49-.02-4.5-2.13-4.49-4.7s2.06-4.65,4.55-4.63c1.12,0,2.23.51,3.39,1.54,1.04.92,1.99,2.11,2.82,3.17h0Z"/>
    <path class="st2" d="M14.22,25.02c-.53.71-1.33,1.71-2.23,2.47-.98.83-1.93,1.25-2.82,1.24-2-.02-3.62-1.71-3.61-3.78s1.65-3.74,3.66-3.73c.9,0,1.79.41,2.73,1.24.84.74,1.6,1.7,2.27,2.55h0Z"/>
    <path class="st2" d="M13.05,25.01c-.41.54-1.02,1.31-1.7,1.89-.75.64-1.47.95-2.15.95-1.53-.01-2.77-1.31-2.76-2.89,0-1.58,1.26-2.85,2.8-2.84.68,0,1.36.31,2.08.95.64.56,1.22,1.29,1.73,1.95h0Z"/>
    <path class="st2" d="M11.81,25.01c-.27.36-.68.87-1.14,1.26-.5.43-.99.64-1.44.64-1.03,0-1.86-.88-1.85-1.94,0-1.06.84-1.91,1.87-1.91.46,0,.91.21,1.4.64.43.38.82.87,1.16,1.31h0Z"/>
    <path class="st3" d="M21.01,25.08s-.04-.05-.06-.07l3.14,3.24,3.16-3.27-3.16-3.27-3.16,3.27c-1.57-2-3.33-4.23-5.29-5.94-2.23-1.95-4.34-2.91-6.47-2.93-4.74-.04-8.63,3.92-8.66,8.82s3.8,8.92,8.54,8.95c2.11.01,4.35-.98,6.67-2.95,2.13-1.81,4.02-4.18,5.28-5.85h.01Z"/>
    <path class="st3" d="M24.19,28.25c-1.96,1.64-4.17,3.5-5.86,5.54-1.89,2.3-2.82,4.49-2.84,6.68-.03,4.9,3.8,8.92,8.54,8.95,4.74.03,8.63-3.93,8.67-8.82.02-2.18-.94-4.5-2.85-6.89-1.75-2.2-4.05-4.15-5.67-5.46h.01Z"/>
    <path class="st3" d="M39.28,15.84c-2.11-.02-4.36.97-6.67,2.95-2.13,1.81-4.02,4.18-5.28,5.85,1.59,2.03,3.38,4.3,5.37,6.05,2.22,1.96,4.34,2.92,6.47,2.93,4.74.03,8.63-3.92,8.66-8.82.04-4.9-3.8-8.92-8.54-8.95h-.01Z"/>
    <path class="st3" d="M24.02,21.68c1.96-1.64,4.16-3.49,5.85-5.54,1.89-2.3,2.82-4.48,2.84-6.68.03-4.9-3.8-8.92-8.54-8.95-4.74-.03-8.63,3.93-8.66,8.82-.02,2.18.94,4.5,2.85,6.89,1.75,2.2,4.05,4.15,5.67,5.45h-.01Z"/>
  </g>
</svg>