<?xml version="1.0" encoding="UTF-8"?>
<svg id="Capa_1" xmlns="http://www.w3.org/2000/svg" version="1.1" viewBox="0 0 97.5 110.96">
  <!-- Generator: Adobe Illustrator 30.2.1, SVG Export Plug-In . SVG Version: 2.1.1 Build 1)  -->
  <defs>
    <style>
      .st0 {
        fill: #fff;
        fill-rule: evenodd;
      }
    </style>
  </defs>
  <g id="Page-1">
    <g id="Dribbble-Light-Preview">
      <g id="icons">
        <path id="instagram-_x5B__x23_167_x5D_" class="st0" d="M27.48,1.26c-7.91.59-14.73,2.95-20.13,9.37C1.94,17.08.2,24.98.05,33.92c-.1,5.58-.43,47.72,3.6,58.68,2.72,7.39,7.87,13.01,14.53,15.77,3.11,1.29,6.65,2.14,11.81,2.29,43.17,1.23,59.13-.34,65.42-20.16,1.12-3.53,1.85-7.55,1.94-13.41.84-49.29-1.69-59.92-9.4-68.29-6.12-6.64-13.23-11.09-60.46-7.52M30.16,100.73c-4.73-.13-7.31-.97-9.04-1.69-4.34-1.8-7.66-5.4-9.43-10.23-3.07-8.33-3.03-48.2-2.92-54.66.11-6.32,1.1-12.12,4.91-16.67,4.72-5.61,10.91-8.45,53.56-7.24,5.57.16,10.67,1.32,14.7,5.68,4.97,5.39,7.53,12.52,6.69,60.9-.09,5.37-.81,8.3-1.43,10.26-4.09,12.89-14.13,14.9-57.04,13.64M68.07,25.66c.08,3.64,2.75,6.55,5.96,6.47s5.75-3.09,5.66-6.74-2.76-6.54-5.97-6.47-5.74,3.09-5.66,6.74M23.84,56.06c.36,15.61,11.78,28,25.51,27.69s24.58-13.22,24.22-28.83c-.36-15.61-11.78-27.99-25.51-27.68-13.73.31-24.58,13.21-24.22,28.82M32.56,55.86c-.23-10.12,6.8-18.5,15.72-18.71,8.91-.2,16.33,7.85,16.56,17.97.23,10.13-6.8,18.51-15.72,18.72s-16.33-7.85-16.56-17.98"/>
      </g>
    </g>
  </g>
</svg>