<?xml version="1.0" encoding="UTF-8"?>
<svg id="Capa_1" xmlns="http://www.w3.org/2000/svg" version="1.1" viewBox="0 0 158.49 159.18">
  <!-- Generator: Adobe Illustrator 30.2.1, SVG Export Plug-In . SVG Version: 2.1.1 Build 1)  -->
  <defs>
    <style>
      .st0 {
        fill: #fff;
      }
    </style>
  </defs>
  <path d="M84.44,159.02c-24.88,1.63-48.84-8.7-65.07-27.49-26.04-30.16-25.65-74.09.04-103.95,31.26-36.34,87.1-36.93,118.94-.8,20.41,23.16,26.17,55.79,13.28,85.14-11.49,26.17-37.34,45.15-67.19,47.1ZM126.86,101.38c.79-10.33,1.19-39.43-.8-48.76-2.59-12.15-12.53-19.96-24.81-20.5-13.62-.6-27.16-.47-41.02-.14-5.34.13-10.43.99-15.13,3.56-8.24,4.51-12.81,12.87-13.32,22.3-.79,14.63-.76,28.89.02,43.51.86,16.1,12.72,25.9,28.4,25.9h38.37c15.6,0,27.04-9.77,28.28-25.89Z"/>
  <path class="st0" d="M126.86,101.38c-1.23,16.12-12.68,25.89-28.28,25.89h-38.37c-15.68,0-27.54-9.81-28.4-25.91-.78-14.63-.81-28.88-.02-43.51.51-9.43,5.08-17.79,13.32-22.3,4.7-2.57,9.79-3.44,15.13-3.56,13.86-.33,27.41-.45,41.02.14,12.29.54,22.22,8.34,24.81,20.5,1.99,9.33,1.59,38.43.8,48.76ZM118.49,100.84c.77-14.25.7-28.2.04-42.45-.56-12.13-9.33-18.09-20.99-18.1h-36.29c-11.68-.02-20.53,6.03-21.06,18.1-.64,14.33-.57,28.42,0,42.56.39,9.82,7.29,17.02,17.41,17.64,13.62.84,26.88.51,40.36.25,11.34-.22,19.87-5.81,20.53-18.01Z"/>
  <path d="M118.49,100.84c-.66,12.2-9.19,17.79-20.53,18.01-13.48.26-26.74.59-40.36-.25-10.12-.63-17.02-7.83-17.41-17.64-.56-14.15-.63-28.24,0-42.56.54-12.07,9.38-18.12,21.06-18.12h36.29c11.66.02,20.43,5.98,20.99,18.11.66,14.25.73,28.2-.04,42.45ZM104.42,48.22c-3.45.53-5.54,3.67-4.67,7.15.67,2.68,3.52,4.72,6.46,4.18,3.1-.57,5.33-3.48,4.74-6.64-.54-2.88-3.29-5.19-6.53-4.69ZM67.59,101.47c12.28,6.64,26.86,1.82,33.41-9.71,6.62-11.66,2.71-26.67-9.13-33.53-12.25-7.1-27.59-2.7-34.26,9.27-6.67,11.94-2.6,27.17,9.98,33.97Z"/>
  <path class="st0" d="M67.59,101.47c-12.58-6.8-16.65-22.03-9.98-33.97,6.68-11.96,22.01-16.36,34.26-9.27,11.84,6.85,15.75,21.87,9.13,33.53-6.54,11.53-21.12,16.35-33.41,9.71ZM70.59,93.41c8.94,5.72,20.38,1.55,24.04-7.82s-1.99-20.1-12.16-22.07c-7.93-1.54-15.5,2.75-18.37,9.89s-.44,15.57,6.5,20.01Z"/>
  <path class="st0" d="M104.42,48.22c3.23-.5,5.99,1.81,6.53,4.69.59,3.16-1.64,6.07-4.74,6.64-2.94.54-5.78-1.5-6.46-4.18-.87-3.48,1.22-6.63,4.67-7.15Z"/>
  <path d="M70.59,93.41c-6.94-4.44-9.43-12.74-6.5-20.01s10.44-11.43,18.37-9.89c10.17,1.97,15.86,12.6,12.16,22.07s-15.09,13.54-24.04,7.82Z"/>
</svg>