<?xml version="1.0" encoding="UTF-8"?>
<svg id="Capa_1" xmlns="http://www.w3.org/2000/svg" version="1.1" viewBox="0 0 766.8 254.9">
  <!-- Generator: Adobe Illustrator 30.2.1, SVG Export Plug-In . SVG Version: 2.1.1 Build 1)  -->
  <defs>
    <style>
      .st0 {
        fill: #010101;
      }

      .st1 {
        fill: #020200;
      }

      .st2 {
        fill: #020201;
      }

      .st3 {
        font-family: MontserratSubrayada-Bold, 'Montserrat Subrayada';
        font-size: 45.7px;
        font-weight: 700;
      }
    </style>
  </defs>
  <path d="M132.3,81.7l-4.9,29.8H40.1s0,57.4,0,57.4L0,171.5V41.7c-.3-11,6.9-18.5,17.6-20.2h133.1s-9.7,32-9.7,32H40.1s-.2,28-.2,28l92.4.2Z"/>
  <path d="M567.1,22.6l-72.1,89v55.6l-40,1.8v-57.3l-45-54.4-28.6-35.7h45.5l47.9,59.3c8.3-9.2,15.4-18.5,23.2-28.2l24.6-30.2h44.3Z"/>
  <polygon points="325.1 168.9 285.1 170.3 285.1 51.6 231.3 51.5 232 21.6 378.1 21.5 378.1 51.6 325.1 51.6 325.1 168.9"/>
  <path d="M211.2,166.2l-40.1,1.7V24.6c13.4-.9,26.3-1,40-.2v141.8Z"/>
  <path d="M211.6,219.3c4.8,9.2-1.3,19.1-10.9,21.7-8.5,2.3-17.5,1.7-26.7,1.3v-32.6c11.5,0,31-2.9,37.5,9.6ZM206,225.5c-.5-12.7-16.2-12.6-26-11.7v24.9c10.3.2,26.5.2,26-13.2Z"/>
  <path d="M321,228.6h-9.1s-1.2-2.3-1.2-2.3c-.3-.5,1.4-1.7,2.1-1.7h14.4s-.2,14.9-.2,14.9c-9.4,4.7-19.5,5.5-29,1.4-6-2.6-9.9-7.7-10.2-13.5s2.8-11.3,8.7-15.3c13.1-8.9,35.1.3,27.4,2.2s-13.7-4.4-23,.9c-3.9,2.2-5.9,6.3-6,10.1s1.5,8.5,5.3,10.8c6.6,4,14.1,3.4,21,.9v-8.5Z"/>
  <path d="M425,241.3c0,1.5-5.1,1.8-6,.5v-26.7c0,0-15.6-.3-15.6-.3-1.2,0-1.4-5.2-.1-5.2l32.8-.2c1,0,3,1.2,3,2s-1.7,2.5-2.8,2.5h-11.1c0,0,0,27.3,0,27.3Z"/>
  <path d="M563.5,242.6l-24.5-.2v-31.8c0,0,6-.3,6-.3l.2,28.4h17.9c.9-.1,2.7,1.1,2.7,1.7s-1.5,2.3-2.3,2.3Z"/>
  <path d="M687.8,227.6c-19.8.5-38.6,1.2-57.7.1l-18.7-1.1c6.1-.5,11.8-1.1,17.7-1.1l79.3-.4c1.8,0,5.1,1.1,7.1,1.7l-27.7.7Z"/>
  <path d="M110,227.7c-17.1.7-34.2.7-51.3,0l-26.4-1.1,21-.9,67.2-.2c5.4,0,10.8.8,16,1.3l-26.5,1.1Z"/>
  <path d="M253.9,242.2c-1.4,1-4.7,1.1-6.8.6v-34.2c.1,0,7,.6,7,.6l-.2,33.1Z"/>
  <path d="M369.2,240.8c0,1.5-4.5,1.8-6.1.7v-32c-.1,0,6,0,6,0v31.3Z"/>
  <path class="st1" d="M558.7,169.1c-18.5-.4-35.5,1.4-53.1-.2l70.3-61.9c20-17.7,40.4-33.2,62.5-48.5,32.4-22.5,78.9-47.2,115.3-58.5l-112.8,104.2-65,58.3c-4.7,4.7-9.8,6.8-17.2,6.6Z"/>
  <polygon class="st0" points="766.8 171 705.9 170.6 643.9 112.7 675.6 86 709.9 117.3 766.8 171"/>
  <polygon class="st2" points="646.4 43.9 614.8 66.9 569.8 20.7 623.4 20.2 646.4 43.9"/>
  <text class="st3" transform="translate(461.9 243.5) scale(1 1)"><tspan x="0" y="0">@</tspan></text>
</svg>