<?xml version="1.0" encoding="UTF-8"?>
<svg id="Capa_1" data-name="Capa 1" xmlns="http://www.w3.org/2000/svg" viewBox="0 0 158.51 159.21">
  <defs>
    <style>
      .cls-1 {
        fill: #fff;
      }
    </style>
  </defs>
  <path d="M157.95,70.32c5.21,43.95-26.93,83.97-70.46,88.47-36.35,3.76-70.06-17.8-82.63-51.83C-4.38,81.92-.2,54.31,15.33,32.83,39.72-.9,86.41-10.28,121.61,12.41c19.96,12.87,33.52,34.08,36.35,57.91ZM55.2,120.23c25.78,14.52,57.6,3.33,69-23.51,8.99-21.18,1.34-45.88-17.34-58.66-18.98-12.98-44.74-10.95-61.38,5.11-16.18,15.48-19.63,39.96-8.26,59.33l-7.09,24.85,25.08-7.12Z"/>
  <path class="cls-1" d="M55.2,120.23l-25.08,7.12,7.09-24.85c-11.37-19.37-7.92-43.85,8.26-59.33,16.64-16.05,42.4-18.09,61.38-5.11,18.68,12.78,26.34,37.48,17.34,58.66-11.4,26.84-43.22,38.04-69,23.51ZM56.37,111.52c12.28,7.85,26.79,9.35,40.33,3.03,11.04-5.14,20.16-15.97,22.44-29.22,2.34-13.53-2.08-26.95-11.74-36.28s-23.16-13.15-36.58-10.42c-13.11,2.67-23.69,11.94-28.54,22.94-6.06,13.72-4.28,28.09,3.72,39.81l-4.23,14.21,14.59-4.08Z"/>
  <path d="M56.37,111.52l-14.59,4.08,4.23-14.21c-8-11.73-9.78-26.1-3.72-39.81,4.86-11,15.43-20.28,28.54-22.94,13.42-2.73,26.95,1.11,36.58,10.42s14.07,22.75,11.74,36.28c-2.29,13.25-11.41,24.07-22.44,29.22-13.54,6.31-28.05,4.81-40.33-3.03ZM90.15,85.05c-1.48,1.86-2.77,3.74-4.87,5.28-8.14-2.39-14.45-8.27-18.32-15.77,1.45-3.51,5.61-5.18,3.71-9.41l-4.3-9.56c-3.72-1.56-7.3-.4-9.55,2.92-3.01,4.43-3.48,10.01-1.23,15.11,3.15,7.12,8.24,13.25,14.08,18.57,4.9,4.46,10.79,6.85,17.17,8.87,5.21,1.64,10.77,1.01,14.85-2.95,2.39-2.33,2.94-5.78,2.12-8.79-4.13-1.58-11.08-7.52-13.66-4.27Z"/>
  <path class="cls-1" d="M90.15,85.05c2.59-3.25,9.53,2.68,13.66,4.27.82,3.01.27,6.47-2.12,8.79-4.08,3.97-9.64,4.6-14.85,2.95-6.38-2.01-12.27-4.4-17.17-8.87-5.84-5.33-10.93-11.45-14.08-18.57-2.25-5.09-1.78-10.68,1.23-15.11,2.25-3.32,5.83-4.48,9.55-2.92l4.3,9.56c1.9,4.23-2.26,5.9-3.71,9.41,3.87,7.5,10.18,13.38,18.32,15.77,2.1-1.54,3.39-3.42,4.87-5.28Z"/>
</svg>